<svg width="1440" height="894" viewBox="0 0 1440 894" fill="none" xmlns="http://www.w3.org/2000/svg">
<g style="mix-blend-mode:overlay">
<path d="M-377.955 893H-425V845.947M-377.955 893V845.947M-377.955 893H-330.909M-377.955 845.947H-425M-377.955 845.947V798.895M-377.955 845.947H-330.909M-425 845.947V798.895M-377.955 798.895H-425M-377.955 798.895V751.842M-377.955 798.895H-330.909M-425 798.895V751.842M-377.955 751.842H-425M-377.955 751.842V704.789M-377.955 751.842H-330.909M-425 751.842V704.789M-377.955 704.789H-425M-377.955 704.789V657.737M-377.955 704.789H-330.909M-425 704.789V657.737M-377.955 657.737H-425M-377.955 657.737V610.684M-377.955 657.737H-330.909M-425 657.737V610.684M-377.955 610.684H-425M-377.955 610.684V563.632M-377.955 610.684H-330.909M-425 610.684V563.632M-377.955 563.632H-425M-377.955 563.632V516.579M-377.955 563.632H-330.909M-425 563.632V516.579M-377.955 516.579H-425M-377.955 516.579V469.526M-377.955 516.579H-330.909M-425 516.579V469.526M-377.955 469.526H-425M-377.955 469.526V422.474M-377.955 469.526H-330.909M-425 469.526V422.474M-377.955 422.474H-425M-377.955 422.474V375.421M-377.955 422.474H-330.909M-425 422.474V375.421M-377.955 375.421H-425M-377.955 375.421V328.368M-377.955 375.421H-330.909M-425 375.421V328.368M-377.955 328.368H-425M-377.955 328.368V281.316M-377.955 328.368H-330.909M-425 328.368V281.316M-377.955 281.316H-425M-377.955 281.316V234.263M-377.955 281.316H-330.909M-425 281.316V234.263M-377.955 234.263H-425M-377.955 234.263V187.211M-377.955 234.263H-330.909M-425 234.263V187.211M-377.955 187.211H-425M-377.955 187.211V140.158M-377.955 187.211H-330.909M-425 187.211V140.158M-377.955 140.158H-425M-377.955 140.158V93.1053M-377.955 140.158H-330.909M-425 140.158V93.1053M-377.955 93.1053H-425M-377.955 93.1053V46.0526M-377.955 93.1053H-330.909M-425 93.1053V46.0526M-377.955 46.0526H-425M-377.955 46.0526V-0.999996M-377.955 46.0526H-330.909M-425 46.0526V-0.999996H-377.955M-377.955 -0.999996H-330.909M-330.909 893V845.947M-330.909 893H-283.864M-330.909 845.947V798.895M-330.909 845.947H-283.864M-330.909 798.895V751.842M-330.909 798.895H-283.864M-330.909 751.842V704.789M-330.909 751.842H-283.864M-330.909 704.789V657.737M-330.909 704.789H-283.864M-330.909 657.737V610.684M-330.909 657.737H-283.864M-330.909 610.684V563.632M-330.909 610.684H-283.864M-330.909 563.632V516.579M-330.909 563.632H-283.864M-330.909 516.579V469.526M-330.909 516.579H-283.864M-330.909 469.526V422.474M-330.909 469.526H-283.864M-330.909 422.474V375.421M-330.909 422.474H-283.864M-330.909 375.421V328.368M-330.909 375.421H-283.864M-330.909 328.368V281.316M-330.909 328.368H-283.864M-330.909 281.316V234.263M-330.909 281.316H-283.864M-330.909 234.263V187.211M-330.909 234.263H-283.864M-330.909 187.211V140.158M-330.909 187.211H-283.864M-330.909 140.158V93.1053M-330.909 140.158H-283.864M-330.909 93.1053V46.0526M-330.909 93.1053H-283.864M-330.909 46.0526V-0.999996M-330.909 46.0526H-283.864M-330.909 -0.999996H-283.864M-283.864 893V845.947M-283.864 893H-236.818M-283.864 845.947V798.895M-283.864 845.947H-236.818M-283.864 798.895V751.842M-283.864 798.895H-236.818M-283.864 751.842V704.789M-283.864 751.842H-236.818M-283.864 704.789V657.737M-283.864 704.789H-236.818M-283.864 657.737V610.684M-283.864 657.737H-236.818M-283.864 610.684V563.632M-283.864 610.684H-236.818M-283.864 563.632V516.579M-283.864 563.632H-236.818M-283.864 516.579V469.526M-283.864 516.579H-236.818M-283.864 469.526V422.474M-283.864 469.526H-236.818M-283.864 422.474V375.421M-283.864 422.474H-236.818M-283.864 375.421V328.368M-283.864 375.421H-236.818M-283.864 328.368V281.316M-283.864 328.368H-236.818M-283.864 281.316V234.263M-283.864 281.316H-236.818M-283.864 234.263V187.211M-283.864 234.263H-236.818M-283.864 187.211V140.158M-283.864 187.211H-236.818M-283.864 140.158V93.1053M-283.864 140.158H-236.818M-283.864 93.1053V46.0526M-283.864 93.1053H-236.818M-283.864 46.0526V-0.999996M-283.864 46.0526H-236.818M-283.864 -0.999996H-236.818M-236.818 893V845.947M-236.818 893H-189.773M-236.818 845.947V798.895M-236.818 845.947H-189.773M-236.818 798.895V751.842M-236.818 798.895H-189.773M-236.818 751.842V704.789M-236.818 751.842H-189.773M-236.818 704.789V657.737M-236.818 704.789H-189.773M-236.818 657.737V610.684M-236.818 657.737H-189.773M-236.818 610.684V563.632M-236.818 610.684H-189.773M-236.818 563.632V516.579M-236.818 563.632H-189.773M-236.818 516.579V469.526M-236.818 516.579H-189.773M-236.818 469.526V422.474M-236.818 469.526H-189.773M-236.818 422.474V375.421M-236.818 422.474H-189.773M-236.818 375.421V328.368M-236.818 375.421H-189.773M-236.818 328.368V281.316M-236.818 328.368H-189.773M-236.818 281.316V234.263M-236.818 281.316H-189.773M-236.818 234.263V187.211M-236.818 234.263H-189.773M-236.818 187.211V140.158M-236.818 187.211H-189.773M-236.818 140.158V93.1053M-236.818 140.158H-189.773M-236.818 93.1053V46.0526M-236.818 93.1053H-189.773M-236.818 46.0526V-0.999996M-236.818 46.0526H-189.773M-236.818 -0.999996H-189.773M-189.773 893V845.947M-189.773 893H-142.727M-189.773 845.947V798.895M-189.773 845.947H-142.727M-189.773 798.895V751.842M-189.773 798.895H-142.727M-189.773 751.842V704.789M-189.773 751.842H-142.727M-189.773 704.789V657.737M-189.773 704.789H-142.727M-189.773 657.737V610.684M-189.773 657.737H-142.727M-189.773 610.684V563.632M-189.773 610.684H-142.727M-189.773 563.632V516.579M-189.773 563.632H-142.727M-189.773 516.579V469.526M-189.773 516.579H-142.727M-189.773 469.526V422.474M-189.773 469.526H-142.727M-189.773 422.474V375.421M-189.773 422.474H-142.727M-189.773 375.421V328.368M-189.773 375.421H-142.727M-189.773 328.368V281.316M-189.773 328.368H-142.727M-189.773 281.316V234.263M-189.773 281.316H-142.727M-189.773 234.263V187.211M-189.773 234.263H-142.727M-189.773 187.211V140.158M-189.773 187.211H-142.727M-189.773 140.158V93.1053M-189.773 140.158H-142.727M-189.773 93.1053V46.0526M-189.773 93.1053H-142.727M-189.773 46.0526V-0.999996M-189.773 46.0526H-142.727M-189.773 -0.999996H-142.727M-142.727 893V845.947M-142.727 893H-95.6818M-142.727 845.947V798.895M-142.727 845.947H-95.6818M-142.727 798.895V751.842M-142.727 798.895H-95.6818M-142.727 751.842V704.789M-142.727 751.842H-95.6818M-142.727 704.789V657.737M-142.727 704.789H-95.6818M-142.727 657.737V610.684M-142.727 657.737H-95.6818M-142.727 610.684V563.632M-142.727 610.684H-95.6818M-142.727 563.632V516.579M-142.727 563.632H-95.6818M-142.727 516.579V469.526M-142.727 516.579H-95.6818M-142.727 469.526V422.474M-142.727 469.526H-95.6818M-142.727 422.474V375.421M-142.727 422.474H-95.6818M-142.727 375.421V328.368M-142.727 375.421H-95.6818M-142.727 328.368V281.316M-142.727 328.368H-95.6818M-142.727 281.316V234.263M-142.727 281.316H-95.6818M-142.727 234.263V187.211M-142.727 234.263H-95.6818M-142.727 187.211V140.158M-142.727 187.211H-95.6818M-142.727 140.158V93.1053M-142.727 140.158H-95.6818M-142.727 93.1053V46.0526M-142.727 93.1053H-95.6818M-142.727 46.0526V-0.999996M-142.727 46.0526H-95.6818M-142.727 -0.999996H-95.6818M-95.6818 893V845.947M-95.6818 893H-48.6364M-95.6818 845.947V798.895M-95.6818 845.947H-48.6364M-95.6818 798.895V751.842M-95.6818 798.895H-48.6364M-95.6818 751.842V704.789M-95.6818 751.842H-48.6364M-95.6818 704.789V657.737M-95.6818 704.789H-48.6364M-95.6818 657.737V610.684M-95.6818 657.737H-48.6364M-95.6818 610.684V563.632M-95.6818 610.684H-48.6364M-95.6818 563.632V516.579M-95.6818 563.632H-48.6364M-95.6818 516.579V469.526M-95.6818 516.579H-48.6364M-95.6818 469.526V422.474M-95.6818 469.526H-48.6364M-95.6818 422.474V375.421M-95.6818 422.474H-48.6364M-95.6818 375.421V328.368M-95.6818 375.421H-48.6364M-95.6818 328.368V281.316M-95.6818 328.368H-48.6364M-95.6818 281.316V234.263M-95.6818 281.316H-48.6364M-95.6818 234.263V187.211M-95.6818 234.263H-48.6364M-95.6818 187.211V140.158M-95.6818 187.211H-48.6364M-95.6818 140.158V93.1053M-95.6818 140.158H-48.6364M-95.6818 93.1053V46.0526M-95.6818 93.1053H-48.6364M-95.6818 46.0526V-0.999996M-95.6818 46.0526H-48.6364M-95.6818 -0.999996H-48.6364M-48.6364 893V845.947M-48.6364 893H-1.59091M-48.6364 845.947V798.895M-48.6364 845.947H-1.59091M-48.6364 798.895V751.842M-48.6364 798.895H-1.59091M-48.6364 751.842V704.789M-48.6364 751.842H-1.59091M-48.6364 704.789V657.737M-48.6364 704.789H-1.59091M-48.6364 657.737V610.684M-48.6364 657.737H-1.59091M-48.6364 610.684V563.632M-48.6364 610.684H-1.59091M-48.6364 563.632V516.579M-48.6364 563.632H-1.59091M-48.6364 516.579V469.526M-48.6364 516.579H-1.59091M-48.6364 469.526V422.474M-48.6364 469.526H-1.59091M-48.6364 422.474V375.421M-48.6364 422.474H-1.59091M-48.6364 375.421V328.368M-48.6364 375.421H-1.59091M-48.6364 328.368V281.316M-48.6364 328.368H-1.59091M-48.6364 281.316V234.263M-48.6364 281.316H-1.59091M-48.6364 234.263V187.211M-48.6364 234.263H-1.59091M-48.6364 187.211V140.158M-48.6364 187.211H-1.59091M-48.6364 140.158V93.1053M-48.6364 140.158H-1.59091M-48.6364 93.1053V46.0526M-48.6364 93.1053H-1.59091M-48.6364 46.0526V-0.999996M-48.6364 46.0526H-1.59091M-48.6364 -0.999996H-1.59091M-1.59091 893V845.947M-1.59091 893H45.4545M-1.59091 845.947V798.895M-1.59091 845.947H45.4545M-1.59091 798.895V751.842M-1.59091 798.895H45.4545M-1.59091 751.842V704.789M-1.59091 751.842H45.4545M-1.59091 704.789V657.737M-1.59091 704.789H45.4545M-1.59091 657.737V610.684M-1.59091 657.737H45.4545M-1.59091 610.684V563.632M-1.59091 610.684H45.4545M-1.59091 563.632V516.579M-1.59091 563.632H45.4545M-1.59091 516.579V469.526M-1.59091 516.579H45.4545M-1.59091 469.526V422.474M-1.59091 469.526H45.4545M-1.59091 422.474V375.421M-1.59091 422.474H45.4545M-1.59091 375.421V328.368M-1.59091 375.421H45.4545M-1.59091 328.368V281.316M-1.59091 328.368H45.4545M-1.59091 281.316V234.263M-1.59091 281.316H45.4545M-1.59091 234.263V187.211M-1.59091 234.263H45.4545M-1.59091 187.211V140.158M-1.59091 187.211H45.4545M-1.59091 140.158V93.1053M-1.59091 140.158H45.4545M-1.59091 93.1053V46.0526M-1.59091 93.1053H45.4545M-1.59091 46.0526V-0.999996M-1.59091 46.0526H45.4545M-1.59091 -0.999996H45.4545M45.4545 893V845.947M45.4545 893H92.5M45.4545 845.947V798.895M45.4545 845.947H92.5M45.4545 798.895V751.842M45.4545 798.895H92.5M45.4545 751.842V704.789M45.4545 751.842H92.5M45.4545 704.789V657.737M45.4545 704.789H92.5M45.4545 657.737V610.684M45.4545 657.737H92.5M45.4545 610.684V563.632M45.4545 610.684H92.5M45.4545 563.632V516.579M45.4545 563.632H92.5M45.4545 516.579V469.526M45.4545 516.579H92.5M45.4545 469.526V422.474M45.4545 469.526H92.5M45.4545 422.474V375.421M45.4545 422.474H92.5M45.4545 375.421V328.368M45.4545 375.421H92.5M45.4545 328.368V281.316M45.4545 328.368H92.5M45.4545 281.316V234.263M45.4545 281.316H92.5M45.4545 234.263V187.211M45.4545 234.263H92.5M45.4545 187.211V140.158M45.4545 187.211H92.5M45.4545 140.158V93.1053M45.4545 140.158H92.5M45.4545 93.1053V46.0526M45.4545 93.1053H92.5M45.4545 46.0526V-0.999996M45.4545 46.0526H92.5M45.4545 -0.999996H92.5M92.5 893V845.947M92.5 893H139.545M92.5 845.947V798.895M92.5 845.947H139.545M92.5 798.895V751.842M92.5 798.895H139.545M92.5 751.842V704.789M92.5 751.842H139.545M92.5 704.789V657.737M92.5 704.789H139.545M92.5 657.737V610.684M92.5 657.737H139.545M92.5 610.684V563.632M92.5 610.684H139.545M92.5 563.632V516.579M92.5 563.632H139.545M92.5 516.579V469.526M92.5 516.579H139.545M92.5 469.526V422.474M92.5 469.526H139.545M92.5 422.474V375.421M92.5 422.474H139.545M92.5 375.421V328.368M92.5 375.421H139.545M92.5 328.368V281.316M92.5 328.368H139.545M92.5 281.316V234.263M92.5 281.316H139.545M92.5 234.263V187.211M92.5 234.263H139.545M92.5 187.211V140.158M92.5 187.211H139.545M92.5 140.158V93.1053M92.5 140.158H139.545M92.5 93.1053V46.0526M92.5 93.1053H139.545M92.5 46.0526V-0.999996M92.5 46.0526H139.545M92.5 -0.999996H139.545M139.545 893V845.947M139.545 893H186.591M139.545 845.947V798.895M139.545 845.947H186.591M139.545 798.895V751.842M139.545 798.895H186.591M139.545 751.842V704.789M139.545 751.842H186.591M139.545 704.789V657.737M139.545 704.789H186.591M139.545 657.737V610.684M139.545 657.737H186.591M139.545 610.684V563.632M139.545 610.684H186.591M139.545 563.632V516.579M139.545 563.632H186.591M139.545 516.579V469.526M139.545 516.579H186.591M139.545 469.526V422.474M139.545 469.526H186.591M139.545 422.474V375.421M139.545 422.474H186.591M139.545 375.421V328.368M139.545 375.421H186.591M139.545 328.368V281.316M139.545 328.368H186.591M139.545 281.316V234.263M139.545 281.316H186.591M139.545 234.263V187.211M139.545 234.263H186.591M139.545 187.211V140.158M139.545 187.211H186.591M139.545 140.158V93.1053M139.545 140.158H186.591M139.545 93.1053V46.0526M139.545 93.1053H186.591M139.545 46.0526V-0.999996M139.545 46.0526H186.591M139.545 -0.999996H186.591M186.591 893V845.947M186.591 893H233.636M186.591 845.947V798.895M186.591 845.947H233.636M186.591 798.895V751.842M186.591 798.895H233.636M186.591 751.842V704.789M186.591 751.842H233.636M186.591 704.789V657.737M186.591 704.789H233.636M186.591 657.737V610.684M186.591 657.737H233.636M186.591 610.684V563.632M186.591 610.684H233.636M186.591 563.632V516.579M186.591 563.632H233.636M186.591 516.579V469.526M186.591 516.579H233.636M186.591 469.526V422.474M186.591 469.526H233.636M186.591 422.474V375.421M186.591 422.474H233.636M186.591 375.421V328.368M186.591 375.421H233.636M186.591 328.368V281.316M186.591 328.368H233.636M186.591 281.316V234.263M186.591 281.316H233.636M186.591 234.263V187.211M186.591 234.263H233.636M186.591 187.211V140.158M186.591 187.211H233.636M186.591 140.158V93.1053M186.591 140.158H233.636M186.591 93.1053V46.0526M186.591 93.1053H233.636M186.591 46.0526V-0.999996M186.591 46.0526H233.636M186.591 -0.999996H233.636M233.636 893V845.947M233.636 893H280.682M233.636 845.947V798.895M233.636 845.947H280.682M233.636 798.895V751.842M233.636 798.895H280.682M233.636 751.842V704.789M233.636 751.842H280.682M233.636 704.789V657.737M233.636 704.789H280.682M233.636 657.737V610.684M233.636 657.737H280.682M233.636 610.684V563.632M233.636 610.684H280.682M233.636 563.632V516.579M233.636 563.632H280.682M233.636 516.579V469.526M233.636 516.579H280.682M233.636 469.526V422.474M233.636 469.526H280.682M233.636 422.474V375.421M233.636 422.474H280.682M233.636 375.421V328.368M233.636 375.421H280.682M233.636 328.368V281.316M233.636 328.368H280.682M233.636 281.316V234.263M233.636 281.316H280.682M233.636 234.263V187.211M233.636 234.263H280.682M233.636 187.211V140.158M233.636 187.211H280.682M233.636 140.158V93.1053M233.636 140.158H280.682M233.636 93.1053V46.0526M233.636 93.1053H280.682M233.636 46.0526V-0.999996M233.636 46.0526H280.682M233.636 -0.999996H280.682M280.682 893V845.947M280.682 893H327.727M280.682 845.947V798.895M280.682 845.947H327.727M280.682 798.895V751.842M280.682 798.895H327.727M280.682 751.842V704.789M280.682 751.842H327.727M280.682 704.789V657.737M280.682 704.789H327.727M280.682 657.737V610.684M280.682 657.737H327.727M280.682 610.684V563.632M280.682 610.684H327.727M280.682 563.632V516.579M280.682 563.632H327.727M280.682 516.579V469.526M280.682 516.579H327.727M280.682 469.526V422.474M280.682 469.526H327.727M280.682 422.474V375.421M280.682 422.474H327.727M280.682 375.421V328.368M280.682 375.421H327.727M280.682 328.368V281.316M280.682 328.368H327.727M280.682 281.316V234.263M280.682 281.316H327.727M280.682 234.263V187.211M280.682 234.263H327.727M280.682 187.211V140.158M280.682 187.211H327.727M280.682 140.158V93.1053M280.682 140.158H327.727M280.682 93.1053V46.0526M280.682 93.1053H327.727M280.682 46.0526V-0.999996M280.682 46.0526H327.727M280.682 -0.999996H327.727M327.727 893V845.947M327.727 893H374.773M327.727 845.947V798.895M327.727 845.947H374.773M327.727 798.895V751.842M327.727 798.895H374.773M327.727 751.842V704.789M327.727 751.842H374.773M327.727 704.789V657.737M327.727 704.789H374.773M327.727 657.737V610.684M327.727 657.737H374.773M327.727 610.684V563.632M327.727 610.684H374.773M327.727 563.632V516.579M327.727 563.632H374.773M327.727 516.579V469.526M327.727 516.579H374.773M327.727 469.526V422.474M327.727 469.526H374.773M327.727 422.474V375.421M327.727 422.474H374.773M327.727 375.421V328.368M327.727 375.421H374.773M327.727 328.368V281.316M327.727 328.368H374.773M327.727 281.316V234.263M327.727 281.316H374.773M327.727 234.263V187.211M327.727 234.263H374.773M327.727 187.211V140.158M327.727 187.211H374.773M327.727 140.158V93.1053M327.727 140.158H374.773M327.727 93.1053V46.0526M327.727 93.1053H374.773M327.727 46.0526V-0.999996M327.727 46.0526H374.773M327.727 -0.999996H374.773M374.773 893V845.947M374.773 893H421.818M374.773 845.947V798.895M374.773 845.947H421.818M374.773 798.895V751.842M374.773 798.895H421.818M374.773 751.842V704.789M374.773 751.842H421.818M374.773 704.789V657.737M374.773 704.789H421.818M374.773 657.737V610.684M374.773 657.737H421.818M374.773 610.684V563.632M374.773 610.684H421.818M374.773 563.632V516.579M374.773 563.632H421.818M374.773 516.579V469.526M374.773 516.579H421.818M374.773 469.526V422.474M374.773 469.526H421.818M374.773 422.474V375.421M374.773 422.474H421.818M374.773 375.421V328.368M374.773 375.421H421.818M374.773 328.368V281.316M374.773 328.368H421.818M374.773 281.316V234.263M374.773 281.316H421.818M374.773 234.263V187.211M374.773 234.263H421.818M374.773 187.211V140.158M374.773 187.211H421.818M374.773 140.158V93.1053M374.773 140.158H421.818M374.773 93.1053V46.0526M374.773 93.1053H421.818M374.773 46.0526V-0.999996M374.773 46.0526H421.818M374.773 -0.999996H421.818M421.818 893V845.947M421.818 893H468.864M421.818 845.947V798.895M421.818 845.947H468.864M421.818 798.895V751.842M421.818 798.895H468.864M421.818 751.842V704.789M421.818 751.842H468.864M421.818 704.789V657.737M421.818 704.789H468.864M421.818 657.737V610.684M421.818 657.737H468.864M421.818 610.684V563.632M421.818 610.684H468.864M421.818 563.632V516.579M421.818 563.632H468.864M421.818 516.579V469.526M421.818 516.579H468.864M421.818 469.526V422.474M421.818 469.526H468.864M421.818 422.474V375.421M421.818 422.474H468.864M421.818 375.421V328.368M421.818 375.421H468.864M421.818 328.368V281.316M421.818 328.368H468.864M421.818 281.316V234.263M421.818 281.316H468.864M421.818 234.263V187.211M421.818 234.263H468.864M421.818 187.211V140.158M421.818 187.211H468.864M421.818 140.158V93.1053M421.818 140.158H468.864M421.818 93.1053V46.0526M421.818 93.1053H468.864M421.818 46.0526V-0.999996M421.818 46.0526H468.864M421.818 -0.999996H468.864M468.864 893V845.947M468.864 893H515.909M468.864 845.947V798.895M468.864 845.947H515.909M468.864 798.895V751.842M468.864 798.895H515.909M468.864 751.842V704.789M468.864 751.842H515.909M468.864 704.789V657.737M468.864 704.789H515.909M468.864 657.737V610.684M468.864 657.737H515.909M468.864 610.684V563.632M468.864 610.684H515.909M468.864 563.632V516.579M468.864 563.632H515.909M468.864 516.579V469.526M468.864 516.579H515.909M468.864 469.526V422.474M468.864 469.526H515.909M468.864 422.474V375.421M468.864 422.474H515.909M468.864 375.421V328.368M468.864 375.421H515.909M468.864 328.368V281.316M468.864 328.368H515.909M468.864 281.316V234.263M468.864 281.316H515.909M468.864 234.263V187.211M468.864 234.263H515.909M468.864 187.211V140.158M468.864 187.211H515.909M468.864 140.158V93.1053M468.864 140.158H515.909M468.864 93.1053V46.0526M468.864 93.1053H515.909M468.864 46.0526V-0.999996M468.864 46.0526H515.909M468.864 -0.999996H515.909M515.909 893V845.947M515.909 893H562.955M515.909 845.947V798.895M515.909 845.947H562.955M515.909 798.895V751.842M515.909 798.895H562.955M515.909 751.842V704.789M515.909 751.842H562.955M515.909 704.789V657.737M515.909 704.789H562.955M515.909 657.737V610.684M515.909 657.737H562.955M515.909 610.684V563.632M515.909 610.684H562.955M515.909 563.632V516.579M515.909 563.632H562.955M515.909 516.579V469.526M515.909 516.579H562.955M515.909 469.526V422.474M515.909 469.526H562.955M515.909 422.474V375.421M515.909 422.474H562.955M515.909 375.421V328.368M515.909 375.421H562.955M515.909 328.368V281.316M515.909 328.368H562.955M515.909 281.316V234.263M515.909 281.316H562.955M515.909 234.263V187.211M515.909 234.263H562.955M515.909 187.211V140.158M515.909 187.211H562.955M515.909 140.158V93.1053M515.909 140.158H562.955M515.909 93.1053V46.0526M515.909 93.1053H562.955M515.909 46.0526V-0.999996M515.909 46.0526H562.955M515.909 -0.999996H562.955M562.955 893V845.947M562.955 893H610M562.955 845.947V798.895M562.955 845.947H610M562.955 798.895V751.842M562.955 798.895H610M562.955 751.842V704.789M562.955 751.842H610M562.955 704.789V657.737M562.955 704.789H610M562.955 657.737V610.684M562.955 657.737H610M562.955 610.684V563.632M562.955 610.684H610M562.955 563.632V516.579M562.955 563.632H610M562.955 516.579V469.526M562.955 516.579H610M562.955 469.526V422.474M562.955 469.526H610M562.955 422.474V375.421M562.955 422.474H610M562.955 375.421V328.368M562.955 375.421H610M562.955 328.368V281.316M562.955 328.368H610M562.955 281.316V234.263M562.955 281.316H610M562.955 234.263V187.211M562.955 234.263H610M562.955 187.211V140.158M562.955 187.211H610M562.955 140.158V93.1053M562.955 140.158H610M562.955 93.1053V46.0526M562.955 93.1053H610M562.955 46.0526V-0.999996M562.955 46.0526H610M562.955 -0.999996H610M610 893V845.947M610 893H657.045M610 845.947V798.895M610 845.947H657.045M610 798.895V751.842M610 798.895H657.045M610 751.842V704.789M610 751.842H657.045M610 704.789V657.737M610 704.789H657.045M610 657.737V610.684M610 657.737H657.045M610 610.684V563.632M610 610.684H657.045M610 563.632V516.579M610 563.632H657.045M610 516.579V469.526M610 516.579H657.045M610 469.526V422.474M610 469.526H657.045M610 422.474V375.421M610 422.474H657.045M610 375.421V328.368M610 375.421H657.045M610 328.368V281.316M610 328.368H657.045M610 281.316V234.263M610 281.316H657.045M610 234.263V187.211M610 234.263H657.045M610 187.211V140.158M610 187.211H657.045M610 140.158V93.1053M610 140.158H657.045M610 93.1053V46.0526M610 93.1053H657.045M610 46.0526V-0.999996M610 46.0526H657.045M610 -0.999996H657.045M657.045 893V845.947M657.045 893H704.091M657.045 845.947V798.895M657.045 845.947H704.091M657.045 798.895V751.842M657.045 798.895H704.091M657.045 751.842V704.789M657.045 751.842H704.091M657.045 704.789V657.737M657.045 704.789H704.091M657.045 657.737V610.684M657.045 657.737H704.091M657.045 610.684V563.632M657.045 610.684H704.091M657.045 563.632V516.579M657.045 563.632H704.091M657.045 516.579V469.526M657.045 516.579H704.091M657.045 469.526V422.474M657.045 469.526H704.091M657.045 422.474V375.421M657.045 422.474H704.091M657.045 375.421V328.368M657.045 375.421H704.091M657.045 328.368V281.316M657.045 328.368H704.091M657.045 281.316V234.263M657.045 281.316H704.091M657.045 234.263V187.211M657.045 234.263H704.091M657.045 187.211V140.158M657.045 187.211H704.091M657.045 140.158V93.1053M657.045 140.158H704.091M657.045 93.1053V46.0526M657.045 93.1053H704.091M657.045 46.0526V-0.999996M657.045 46.0526H704.091M657.045 -0.999996H704.091M704.091 893V845.947M704.091 893H751.136M704.091 845.947V798.895M704.091 845.947H751.136M704.091 798.895V751.842M704.091 798.895H751.136M704.091 751.842V704.789M704.091 751.842H751.136M704.091 704.789V657.737M704.091 704.789H751.136M704.091 657.737V610.684M704.091 657.737H751.136M704.091 610.684V563.632M704.091 610.684H751.136M704.091 563.632V516.579M704.091 563.632H751.136M704.091 516.579V469.526M704.091 516.579H751.136M704.091 469.526V422.474M704.091 469.526H751.136M704.091 422.474V375.421M704.091 422.474H751.136M704.091 375.421V328.368M704.091 375.421H751.136M704.091 328.368V281.316M704.091 328.368H751.136M704.091 281.316V234.263M704.091 281.316H751.136M704.091 234.263V187.211M704.091 234.263H751.136M704.091 187.211V140.158M704.091 187.211H751.136M704.091 140.158V93.1053M704.091 140.158H751.136M704.091 93.1053V46.0526M704.091 93.1053H751.136M704.091 46.0526V-0.999996M704.091 46.0526H751.136M704.091 -0.999996H751.136M751.136 893V845.947M751.136 893H798.182M751.136 845.947V798.895M751.136 845.947H798.182M751.136 798.895V751.842M751.136 798.895H798.182M751.136 751.842V704.789M751.136 751.842H798.182M751.136 704.789V657.737M751.136 704.789H798.182M751.136 657.737V610.684M751.136 657.737H798.182M751.136 610.684V563.632M751.136 610.684H798.182M751.136 563.632V516.579M751.136 563.632H798.182M751.136 516.579V469.526M751.136 516.579H798.182M751.136 469.526V422.474M751.136 469.526H798.182M751.136 422.474V375.421M751.136 422.474H798.182M751.136 375.421V328.368M751.136 375.421H798.182M751.136 328.368V281.316M751.136 328.368H798.182M751.136 281.316V234.263M751.136 281.316H798.182M751.136 234.263V187.211M751.136 234.263H798.182M751.136 187.211V140.158M751.136 187.211H798.182M751.136 140.158V93.1053M751.136 140.158H798.182M751.136 93.1053V46.0526M751.136 93.1053H798.182M751.136 46.0526V-0.999996M751.136 46.0526H798.182M751.136 -0.999996H798.182M798.182 893V845.947M798.182 893H845.227M798.182 845.947V798.895M798.182 845.947H845.227M798.182 798.895V751.842M798.182 798.895H845.227M798.182 751.842V704.789M798.182 751.842H845.227M798.182 704.789V657.737M798.182 704.789H845.227M798.182 657.737V610.684M798.182 657.737H845.227M798.182 610.684V563.632M798.182 610.684H845.227M798.182 563.632V516.579M798.182 563.632H845.227M798.182 516.579V469.526M798.182 516.579H845.227M798.182 469.526V422.474M798.182 469.526H845.227M798.182 422.474V375.421M798.182 422.474H845.227M798.182 375.421V328.368M798.182 375.421H845.227M798.182 328.368V281.316M798.182 328.368H845.227M798.182 281.316V234.263M798.182 281.316H845.227M798.182 234.263V187.211M798.182 234.263H845.227M798.182 187.211V140.158M798.182 187.211H845.227M798.182 140.158V93.1053M798.182 140.158H845.227M798.182 93.1053V46.0526M798.182 93.1053H845.227M798.182 46.0526V-0.999996M798.182 46.0526H845.227M798.182 -0.999996H845.227M845.227 893V845.947M845.227 893H892.273M845.227 845.947V798.895M845.227 845.947H892.273M845.227 798.895V751.842M845.227 798.895H892.273M845.227 751.842V704.789M845.227 751.842H892.273M845.227 704.789V657.737M845.227 704.789H892.273M845.227 657.737V610.684M845.227 657.737H892.273M845.227 610.684V563.632M845.227 610.684H892.273M845.227 563.632V516.579M845.227 563.632H892.273M845.227 516.579V469.526M845.227 516.579H892.273M845.227 469.526V422.474M845.227 469.526H892.273M845.227 422.474V375.421M845.227 422.474H892.273M845.227 375.421V328.368M845.227 375.421H892.273M845.227 328.368V281.316M845.227 328.368H892.273M845.227 281.316V234.263M845.227 281.316H892.273M845.227 234.263V187.211M845.227 234.263H892.273M845.227 187.211V140.158M845.227 187.211H892.273M845.227 140.158V93.1053M845.227 140.158H892.273M845.227 93.1053V46.0526M845.227 93.1053H892.273M845.227 46.0526V-0.999996M845.227 46.0526H892.273M845.227 -0.999996H892.273M892.273 893V845.947M892.273 893H939.318M892.273 845.947V798.895M892.273 845.947H939.318M892.273 798.895V751.842M892.273 798.895H939.318M892.273 751.842V704.789M892.273 751.842H939.318M892.273 704.789V657.737M892.273 704.789H939.318M892.273 657.737V610.684M892.273 657.737H939.318M892.273 610.684V563.632M892.273 610.684H939.318M892.273 563.632V516.579M892.273 563.632H939.318M892.273 516.579V469.526M892.273 516.579H939.318M892.273 469.526V422.474M892.273 469.526H939.318M892.273 422.474V375.421M892.273 422.474H939.318M892.273 375.421V328.368M892.273 375.421H939.318M892.273 328.368V281.316M892.273 328.368H939.318M892.273 281.316V234.263M892.273 281.316H939.318M892.273 234.263V187.211M892.273 234.263H939.318M892.273 187.211V140.158M892.273 187.211H939.318M892.273 140.158V93.1053M892.273 140.158H939.318M892.273 93.1053V46.0526M892.273 93.1053H939.318M892.273 46.0526V-0.999996M892.273 46.0526H939.318M892.273 -0.999996H939.318M939.318 893V845.947M939.318 893H986.364M939.318 845.947V798.895M939.318 845.947H986.364M939.318 798.895V751.842M939.318 798.895H986.364M939.318 751.842V704.789M939.318 751.842H986.364M939.318 704.789V657.737M939.318 704.789H986.364M939.318 657.737V610.684M939.318 657.737H986.364M939.318 610.684V563.632M939.318 610.684H986.364M939.318 563.632V516.579M939.318 563.632H986.364M939.318 516.579V469.526M939.318 516.579H986.364M939.318 469.526V422.474M939.318 469.526H986.364M939.318 422.474V375.421M939.318 422.474H986.364M939.318 375.421V328.368M939.318 375.421H986.364M939.318 328.368V281.316M939.318 328.368H986.364M939.318 281.316V234.263M939.318 281.316H986.364M939.318 234.263V187.211M939.318 234.263H986.364M939.318 187.211V140.158M939.318 187.211H986.364M939.318 140.158V93.1053M939.318 140.158H986.364M939.318 93.1053V46.0526M939.318 93.1053H986.364M939.318 46.0526V-0.999996M939.318 46.0526H986.364M939.318 -0.999996H986.364M986.364 893V845.947M986.364 893H1033.41M986.364 845.947V798.895M986.364 845.947H1033.41M986.364 798.895V751.842M986.364 798.895H1033.41M986.364 751.842V704.789M986.364 751.842H1033.41M986.364 704.789V657.737M986.364 704.789H1033.41M986.364 657.737V610.684M986.364 657.737H1033.41M986.364 610.684V563.632M986.364 610.684H1033.41M986.364 563.632V516.579M986.364 563.632H1033.41M986.364 516.579V469.526M986.364 516.579H1033.41M986.364 469.526V422.474M986.364 469.526H1033.41M986.364 422.474V375.421M986.364 422.474H1033.41M986.364 375.421V328.368M986.364 375.421H1033.41M986.364 328.368V281.316M986.364 328.368H1033.41M986.364 281.316V234.263M986.364 281.316H1033.41M986.364 234.263V187.211M986.364 234.263H1033.41M986.364 187.211V140.158M986.364 187.211H1033.41M986.364 140.158V93.1053M986.364 140.158H1033.41M986.364 93.1053V46.0526M986.364 93.1053H1033.41M986.364 46.0526V-0.999996M986.364 46.0526H1033.41M986.364 -0.999996H1033.41M1033.41 893V845.947M1033.41 893H1080.45M1033.41 845.947V798.895M1033.41 845.947H1080.45M1033.41 798.895V751.842M1033.41 798.895H1080.45M1033.41 751.842V704.789M1033.41 751.842H1080.45M1033.41 704.789V657.737M1033.41 704.789H1080.45M1033.41 657.737V610.684M1033.41 657.737H1080.45M1033.41 610.684V563.632M1033.41 610.684H1080.45M1033.41 563.632V516.579M1033.41 563.632H1080.45M1033.41 516.579V469.526M1033.41 516.579H1080.45M1033.41 469.526V422.474M1033.41 469.526H1080.45M1033.41 422.474V375.421M1033.41 422.474H1080.45M1033.41 375.421V328.368M1033.41 375.421H1080.45M1033.41 328.368V281.316M1033.41 328.368H1080.45M1033.41 281.316V234.263M1033.41 281.316H1080.45M1033.41 234.263V187.211M1033.41 234.263H1080.45M1033.41 187.211V140.158M1033.41 187.211H1080.45M1033.41 140.158V93.1053M1033.41 140.158H1080.45M1033.41 93.1053V46.0526M1033.41 93.1053H1080.45M1033.41 46.0526V-0.999996M1033.41 46.0526H1080.45M1033.41 -0.999996H1080.45M1080.45 893V845.947M1080.45 893H1127.5M1080.45 845.947V798.895M1080.45 845.947H1127.5M1080.45 798.895V751.842M1080.45 798.895H1127.5M1080.45 751.842V704.789M1080.45 751.842H1127.5M1080.45 704.789V657.737M1080.45 704.789H1127.5M1080.45 657.737V610.684M1080.45 657.737H1127.5M1080.45 610.684V563.632M1080.45 610.684H1127.5M1080.45 563.632V516.579M1080.45 563.632H1127.5M1080.45 516.579V469.526M1080.45 516.579H1127.5M1080.45 469.526V422.474M1080.45 469.526H1127.5M1080.45 422.474V375.421M1080.45 422.474H1127.5M1080.45 375.421V328.368M1080.45 375.421H1127.5M1080.45 328.368V281.316M1080.45 328.368H1127.5M1080.45 281.316V234.263M1080.45 281.316H1127.5M1080.45 234.263V187.211M1080.45 234.263H1127.5M1080.45 187.211V140.158M1080.45 187.211H1127.5M1080.45 140.158V93.1053M1080.45 140.158H1127.5M1080.45 93.1053V46.0526M1080.45 93.1053H1127.5M1080.45 46.0526V-0.999996M1080.45 46.0526H1127.5M1080.45 -0.999996H1127.5M1127.5 893V845.947M1127.5 893H1174.55M1127.5 845.947V798.895M1127.5 845.947H1174.55M1127.5 798.895V751.842M1127.5 798.895H1174.55M1127.5 751.842V704.789M1127.5 751.842H1174.55M1127.5 704.789V657.737M1127.5 704.789H1174.55M1127.5 657.737V610.684M1127.5 657.737H1174.55M1127.5 610.684V563.632M1127.5 610.684H1174.55M1127.5 563.632V516.579M1127.5 563.632H1174.55M1127.5 516.579V469.526M1127.5 516.579H1174.55M1127.5 469.526V422.474M1127.5 469.526H1174.55M1127.5 422.474V375.421M1127.5 422.474H1174.55M1127.5 375.421V328.368M1127.5 375.421H1174.55M1127.5 328.368V281.316M1127.5 328.368H1174.55M1127.5 281.316V234.263M1127.5 281.316H1174.55M1127.5 234.263V187.211M1127.5 234.263H1174.55M1127.5 187.211V140.158M1127.5 187.211H1174.55M1127.5 140.158V93.1053M1127.5 140.158H1174.55M1127.5 93.1053V46.0526M1127.5 93.1053H1174.55M1127.5 46.0526V-0.999996M1127.5 46.0526H1174.55M1127.5 -0.999996H1174.55M1174.55 893V845.947M1174.55 893H1221.59M1174.55 845.947V798.895M1174.55 845.947H1221.59M1174.55 798.895V751.842M1174.55 798.895H1221.59M1174.55 751.842V704.789M1174.55 751.842H1221.59M1174.55 704.789V657.737M1174.55 704.789H1221.59M1174.55 657.737V610.684M1174.55 657.737H1221.59M1174.55 610.684V563.632M1174.55 610.684H1221.59M1174.55 563.632V516.579M1174.55 563.632H1221.59M1174.55 516.579V469.526M1174.55 516.579H1221.59M1174.55 469.526V422.474M1174.55 469.526H1221.59M1174.55 422.474V375.421M1174.55 422.474H1221.59M1174.55 375.421V328.368M1174.55 375.421H1221.59M1174.55 328.368V281.316M1174.55 328.368H1221.59M1174.55 281.316V234.263M1174.55 281.316H1221.59M1174.55 234.263V187.211M1174.55 234.263H1221.59M1174.55 187.211V140.158M1174.55 187.211H1221.59M1174.55 140.158V93.1053M1174.55 140.158H1221.59M1174.55 93.1053V46.0526M1174.55 93.1053H1221.59M1174.55 46.0526V-0.999996M1174.55 46.0526H1221.59M1174.55 -0.999996H1221.59M1221.59 893V845.947M1221.59 893H1268.64M1221.59 845.947V798.895M1221.59 845.947H1268.64M1221.59 798.895V751.842M1221.59 798.895H1268.64M1221.59 751.842V704.789M1221.59 751.842H1268.64M1221.59 704.789V657.737M1221.59 704.789H1268.64M1221.59 657.737V610.684M1221.59 657.737H1268.64M1221.59 610.684V563.632M1221.59 610.684H1268.64M1221.59 563.632V516.579M1221.59 563.632H1268.64M1221.59 516.579V469.526M1221.59 516.579H1268.64M1221.59 469.526V422.474M1221.59 469.526H1268.64M1221.59 422.474V375.421M1221.59 422.474H1268.64M1221.59 375.421V328.368M1221.59 375.421H1268.64M1221.59 328.368V281.316M1221.59 328.368H1268.64M1221.59 281.316V234.263M1221.59 281.316H1268.64M1221.59 234.263V187.211M1221.59 234.263H1268.64M1221.59 187.211V140.158M1221.59 187.211H1268.64M1221.59 140.158V93.1053M1221.59 140.158H1268.64M1221.59 93.1053V46.0526M1221.59 93.1053H1268.64M1221.59 46.0526V-0.999996M1221.59 46.0526H1268.64M1221.59 -0.999996H1268.64M1268.64 893V845.947M1268.64 893H1315.68M1268.64 845.947V798.895M1268.64 845.947H1315.68M1268.64 798.895V751.842M1268.64 798.895H1315.68M1268.64 751.842V704.789M1268.64 751.842H1315.68M1268.64 704.789V657.737M1268.64 704.789H1315.68M1268.64 657.737V610.684M1268.64 657.737H1315.68M1268.64 610.684V563.632M1268.64 610.684H1315.68M1268.64 563.632V516.579M1268.64 563.632H1315.68M1268.64 516.579V469.526M1268.64 516.579H1315.68M1268.64 469.526V422.474M1268.64 469.526H1315.68M1268.64 422.474V375.421M1268.64 422.474H1315.68M1268.64 375.421V328.368M1268.64 375.421H1315.68M1268.64 328.368V281.316M1268.64 328.368H1315.68M1268.64 281.316V234.263M1268.64 281.316H1315.68M1268.64 234.263V187.211M1268.64 234.263H1315.68M1268.64 187.211V140.158M1268.64 187.211H1315.68M1268.64 140.158V93.1053M1268.64 140.158H1315.68M1268.64 93.1053V46.0526M1268.64 93.1053H1315.68M1268.64 46.0526V-0.999996M1268.64 46.0526H1315.68M1268.64 -0.999996H1315.68M1315.68 893V845.947M1315.68 893H1362.73M1315.68 845.947V798.895M1315.68 845.947H1362.73M1315.68 798.895V751.842M1315.68 798.895H1362.73M1315.68 751.842V704.789M1315.68 751.842H1362.73M1315.68 704.789V657.737M1315.68 704.789H1362.73M1315.68 657.737V610.684M1315.68 657.737H1362.73M1315.68 610.684V563.632M1315.68 610.684H1362.73M1315.68 563.632V516.579M1315.68 563.632H1362.73M1315.68 516.579V469.526M1315.68 516.579H1362.73M1315.68 469.526V422.474M1315.68 469.526H1362.73M1315.68 422.474V375.421M1315.68 422.474H1362.73M1315.68 375.421V328.368M1315.68 375.421H1362.73M1315.68 328.368V281.316M1315.68 328.368H1362.73M1315.68 281.316V234.263M1315.68 281.316H1362.73M1315.68 234.263V187.211M1315.68 234.263H1362.73M1315.68 187.211V140.158M1315.68 187.211H1362.73M1315.68 140.158V93.1053M1315.68 140.158H1362.73M1315.68 93.1053V46.0526M1315.68 93.1053H1362.73M1315.68 46.0526V-0.999996M1315.68 46.0526H1362.73M1315.68 -0.999996H1362.73M1362.73 893V845.947M1362.73 893H1409.77M1362.73 845.947V798.895M1362.73 845.947H1409.77M1362.73 798.895V751.842M1362.73 798.895H1409.77M1362.73 751.842V704.789M1362.73 751.842H1409.77M1362.73 704.789V657.737M1362.73 704.789H1409.77M1362.73 657.737V610.684M1362.73 657.737H1409.77M1362.73 610.684V563.632M1362.73 610.684H1409.77M1362.73 563.632V516.579M1362.73 563.632H1409.77M1362.73 516.579V469.526M1362.73 516.579H1409.77M1362.73 469.526V422.474M1362.73 469.526H1409.77M1362.73 422.474V375.421M1362.73 422.474H1409.77M1362.73 375.421V328.368M1362.73 375.421H1409.77M1362.73 328.368V281.316M1362.73 328.368H1409.77M1362.73 281.316V234.263M1362.73 281.316H1409.77M1362.73 234.263V187.211M1362.73 234.263H1409.77M1362.73 187.211V140.158M1362.73 187.211H1409.77M1362.73 140.158V93.1053M1362.73 140.158H1409.77M1362.73 93.1053V46.0526M1362.73 93.1053H1409.77M1362.73 46.0526V-0.999996M1362.73 46.0526H1409.77M1362.73 -0.999996H1409.77M1409.77 893V845.947M1409.77 893H1456.82M1409.77 845.947V798.895M1409.77 845.947H1456.82M1409.77 798.895V751.842M1409.77 798.895H1456.82M1409.77 751.842V704.789M1409.77 751.842H1456.82M1409.77 704.789V657.737M1409.77 704.789H1456.82M1409.77 657.737V610.684M1409.77 657.737H1456.82M1409.77 610.684V563.632M1409.77 610.684H1456.82M1409.77 563.632V516.579M1409.77 563.632H1456.82M1409.77 516.579V469.526M1409.77 516.579H1456.82M1409.77 469.526V422.474M1409.77 469.526H1456.82M1409.77 422.474V375.421M1409.77 422.474H1456.82M1409.77 375.421V328.368M1409.77 375.421H1456.82M1409.77 328.368V281.316M1409.77 328.368H1456.82M1409.77 281.316V234.263M1409.77 281.316H1456.82M1409.77 234.263V187.211M1409.77 234.263H1456.82M1409.77 187.211V140.158M1409.77 187.211H1456.82M1409.77 140.158V93.1053M1409.77 140.158H1456.82M1409.77 93.1053V46.0526M1409.77 93.1053H1456.82M1409.77 46.0526V-0.999996M1409.77 46.0526H1456.82M1409.77 -0.999996H1456.82M1456.82 893V845.947M1456.82 893H1503.86M1456.82 845.947V798.895M1456.82 845.947H1503.86M1456.82 798.895V751.842M1456.82 798.895H1503.86M1456.82 751.842V704.789M1456.82 751.842H1503.86M1456.82 704.789V657.737M1456.82 704.789H1503.86M1456.82 657.737V610.684M1456.82 657.737H1503.86M1456.82 610.684V563.632M1456.82 610.684H1503.86M1456.82 563.632V516.579M1456.82 563.632H1503.86M1456.82 516.579V469.526M1456.82 516.579H1503.86M1456.82 469.526V422.474M1456.82 469.526H1503.86M1456.82 422.474V375.421M1456.82 422.474H1503.86M1456.82 375.421V328.368M1456.82 375.421H1503.86M1456.82 328.368V281.316M1456.82 328.368H1503.86M1456.82 281.316V234.263M1456.82 281.316H1503.86M1456.82 234.263V187.211M1456.82 234.263H1503.86M1456.82 187.211V140.158M1456.82 187.211H1503.86M1456.82 140.158V93.1053M1456.82 140.158H1503.86M1456.82 93.1053V46.0526M1456.82 93.1053H1503.86M1456.82 46.0526V-0.999996M1456.82 46.0526H1503.86M1456.82 -0.999996H1503.86M1503.86 893V845.947M1503.86 893H1550.91M1503.86 845.947V798.895M1503.86 845.947H1550.91M1503.86 798.895V751.842M1503.86 798.895H1550.91M1503.86 751.842V704.789M1503.86 751.842H1550.91M1503.86 704.789V657.737M1503.86 704.789H1550.91M1503.86 657.737V610.684M1503.86 657.737H1550.91M1503.86 610.684V563.632M1503.86 610.684H1550.91M1503.86 563.632V516.579M1503.86 563.632H1550.91M1503.86 516.579V469.526M1503.86 516.579H1550.91M1503.86 469.526V422.474M1503.86 469.526H1550.91M1503.86 422.474V375.421M1503.86 422.474H1550.91M1503.86 375.421V328.368M1503.86 375.421H1550.91M1503.86 328.368V281.316M1503.86 328.368H1550.91M1503.86 281.316V234.263M1503.86 281.316H1550.91M1503.86 234.263V187.211M1503.86 234.263H1550.91M1503.86 187.211V140.158M1503.86 187.211H1550.91M1503.86 140.158V93.1053M1503.86 140.158H1550.91M1503.86 93.1053V46.0526M1503.86 93.1053H1550.91M1503.86 46.0526V-0.999996M1503.86 46.0526H1550.91M1503.86 -0.999996H1550.91M1550.91 893V845.947M1550.91 893H1597.95M1550.91 845.947V798.895M1550.91 845.947H1597.95M1550.91 798.895V751.842M1550.91 798.895H1597.95M1550.91 751.842V704.789M1550.91 751.842H1597.95M1550.91 704.789V657.737M1550.91 704.789H1597.95M1550.91 657.737V610.684M1550.91 657.737H1597.95M1550.91 610.684V563.632M1550.91 610.684H1597.95M1550.91 563.632V516.579M1550.91 563.632H1597.95M1550.91 516.579V469.526M1550.91 516.579H1597.95M1550.91 469.526V422.474M1550.91 469.526H1597.95M1550.91 422.474V375.421M1550.91 422.474H1597.95M1550.91 375.421V328.368M1550.91 375.421H1597.95M1550.91 328.368V281.316M1550.91 328.368H1597.95M1550.91 281.316V234.263M1550.91 281.316H1597.95M1550.91 234.263V187.211M1550.91 234.263H1597.95M1550.91 187.211V140.158M1550.91 187.211H1597.95M1550.91 140.158V93.1053M1550.91 140.158H1597.95M1550.91 93.1053V46.0526M1550.91 93.1053H1597.95M1550.91 46.0526V-0.999996M1550.91 46.0526H1597.95M1550.91 -0.999996H1597.95M1597.95 893V845.947M1597.95 893H1645V845.947M1597.95 845.947V798.895M1597.95 845.947H1645M1597.95 798.895V751.842M1597.95 798.895H1645M1597.95 751.842V704.789M1597.95 751.842H1645M1597.95 704.789V657.737M1597.95 704.789H1645M1597.95 657.737V610.684M1597.95 657.737H1645M1597.95 610.684V563.632M1597.95 610.684H1645M1597.95 563.632V516.579M1597.95 563.632H1645M1597.95 516.579V469.526M1597.95 516.579H1645M1597.95 469.526V422.474M1597.95 469.526H1645M1597.95 422.474V375.421M1597.95 422.474H1645M1597.95 375.421V328.368M1597.95 375.421H1645M1597.95 328.368V281.316M1597.95 328.368H1645M1597.95 281.316V234.263M1597.95 281.316H1645M1597.95 234.263V187.211M1597.95 234.263H1645M1597.95 187.211V140.158M1597.95 187.211H1645M1597.95 140.158V93.1053M1597.95 140.158H1645M1597.95 93.1053V46.0526M1597.95 93.1053H1645M1597.95 46.0526V-0.999996M1597.95 46.0526H1645M1597.95 -0.999996H1645V46.0526M1645 845.947V798.895M1645 798.895V751.842M1645 751.842V704.789M1645 704.789V657.737M1645 657.737V610.684M1645 610.684V563.632M1645 563.632V516.579M1645 516.579V469.526M1645 469.526V422.474M1645 422.474V375.421M1645 375.421V328.368M1645 328.368V281.316M1645 281.316V234.263M1645 234.263V187.211M1645 187.211V140.158M1645 140.158V93.1053M1645 93.1053V46.0526" stroke="url(#paint0_radial_27434_1258)" stroke-opacity="0.4"/>
</g>
<defs>
<radialGradient id="paint0_radial_27434_1258" cx="0" cy="0" r="1" gradientUnits="userSpaceOnUse" gradientTransform="translate(610 446) rotate(-90) scale(447 835.781)">
<stop stop-color="white"/>
<stop offset="1" stop-color="white" stop-opacity="0.2"/>
</radialGradient>
</defs>
</svg>
