<svg width="100" height="40" viewBox="0 0 100 40" fill="none" xmlns="http://www.w3.org/2000/svg">
<g clip-path="url(#clip0_29429_279)">
<path d="M30.7501 22.012L26.2899 26.5088L25.1589 14.6316L13.3796 13.4912L17.8394 8.99402L23.8137 9.57242C25.448 9.73071 26.9768 10.4575 28.1377 11.6281C29.2987 12.7987 30.0195 14.3401 30.1765 15.988L30.7501 22.012Z" fill="#632ABB"/>
<path d="M39.67 13.0176L35.2099 17.5148L34.0789 5.6376L22.2996 4.4972L26.7597 0L32.7337 0.5784C34.368 0.736688 35.8967 1.46347 37.0577 2.63406C38.2186 3.80466 38.9394 5.34611 39.0964 6.994L39.67 13.0176Z" fill="#632ABB"/>
<path d="M17.8394 8.99418L7.97344 8.04018L8.92156 17.9902L4.45984 22.4854L3.38358 11.191C2.95832 6.72938 6.67344 2.98338 11.0983 3.41218L22.2996 4.49738L17.8394 8.99418Z" fill="#DC49A6"/>
<path d="M28.5714 36.588L17.3701 35.5028L21.8303 31.006L31.6982 31.962L30.7501 22.012L35.2099 17.5148L36.2861 28.8092C36.7114 33.2708 32.9963 37.0168 28.5714 36.588Z" fill="#DC49A6"/>
<path d="M26.2899 26.5088L21.8301 31.006L15.8558 30.4276C14.2215 30.2693 12.6927 29.5425 11.5318 28.3719C10.3708 27.2014 9.65005 25.6599 9.49307 24.012L8.91943 17.988L13.3796 13.4912L14.5106 25.3684L26.2899 26.5088Z" fill="#632ABB"/>
<path d="M17.3702 35.5028L12.9101 40L6.93611 39.4216C5.30181 39.2633 3.77306 38.5366 2.61211 37.366C1.45116 36.1954 0.730372 34.6539 0.573389 33.006L-0.000244141 26.9824L4.45989 22.4852L5.59089 34.3624L17.3702 35.5028Z" fill="#632ABB"/>
<path d="M54.9628 8.03357L53.3851 13.4H52.3973L51.2794 9.33877L50.0925 13.4L49.1122 13.408L47.6047 8.03397H48.531L49.6339 12.404L50.8283 8.03397H51.809L52.9198 12.3812L54.0305 8.03397L54.9628 8.03357Z" fill="white"/>
<path d="M59.3966 11.5999H56.173C56.1994 11.9396 56.3245 12.2127 56.5483 12.4191C56.772 12.6255 57.0476 12.7284 57.375 12.7279C57.8447 12.7279 58.1766 12.5298 58.3707 12.1335H59.3125C59.1879 12.5193 58.9453 12.8554 58.6194 13.0935C58.2849 13.3428 57.8701 13.4676 57.375 13.4679C56.9962 13.4739 56.6226 13.3793 56.2916 13.1935C55.9741 13.0127 55.714 12.7449 55.5414 12.4211C55.3603 12.0891 55.2696 11.7044 55.2693 11.2671C55.269 10.8298 55.3571 10.4451 55.5335 10.1131C55.7014 9.78945 55.9596 9.52236 56.2761 9.34471C56.5956 9.16471 56.9619 9.07445 57.375 9.07391C57.7464 9.06763 58.1132 9.15815 58.4397 9.33671C58.7468 9.50763 58.9991 9.76339 59.1669 10.0739C59.3407 10.3907 59.4274 10.7551 59.4271 11.1671C59.428 11.312 59.4178 11.4567 59.3966 11.5999ZM58.5155 10.8895C58.5108 10.5659 58.3965 10.3055 58.1712 10.1103C57.9458 9.91511 57.6682 9.81671 57.3381 9.81671C57.0532 9.81071 56.7768 9.91426 56.5649 10.1063C56.3504 10.2991 56.2227 10.5602 56.1817 10.8895H58.5155Z" fill="white"/>
<path d="M61.644 9.27244C61.9117 9.13909 62.207 9.07164 62.5056 9.07564C62.8606 9.07129 63.21 9.16494 63.516 9.34644C63.8213 9.52938 64.0689 9.79581 64.2301 10.1148C64.4038 10.4466 64.4907 10.8262 64.4907 11.2536C64.4976 11.6513 64.4081 12.0447 64.2301 12.3996C64.0691 12.7239 63.8219 12.9965 63.516 13.1872C63.2136 13.375 62.8647 13.4729 62.5096 13.4696C62.2086 13.4751 61.9107 13.4088 61.64 13.276C61.404 13.1613 61.1982 12.9922 61.039 12.7824V13.4H60.1663V7.68604H61.039V9.77884C61.1975 9.56359 61.405 9.38992 61.644 9.27244ZM63.4204 10.4924C63.31 10.2887 63.1451 10.1205 62.9444 10.0068C62.7518 9.8966 62.5339 9.8391 62.3124 9.84004C62.0933 9.84023 61.8782 9.89888 61.6888 10.01C61.488 10.1275 61.3232 10.2986 61.2128 10.5044C61.0884 10.7393 61.0265 11.0027 61.0331 11.2688C61.0269 11.5362 61.0887 11.8008 61.2128 12.0372C61.3187 12.2385 61.4769 12.4069 61.6705 12.5244C61.864 12.6419 62.0857 12.7042 62.3116 12.7044C62.5339 12.7054 62.7522 12.6457 62.9436 12.5316C63.1457 12.4105 63.3105 12.2352 63.4196 12.0252C63.5435 11.7876 63.6055 11.5221 63.5997 11.2536C63.6066 10.9885 63.5448 10.7261 63.4204 10.4924Z" fill="white"/>
<path d="M51.5628 19.67C51.4351 19.91 51.2308 20.11 50.9503 20.2604C50.6698 20.4108 50.3096 20.4884 49.8709 20.4884H48.9057V22.6652H48.033V17.2992H49.8713C50.2791 17.2992 50.6249 17.3701 50.9087 17.512C51.172 17.6358 51.393 17.8357 51.5434 18.0864C51.6847 18.3328 51.7574 18.613 51.754 18.8976C51.7548 19.1671 51.6891 19.4325 51.5628 19.67ZM50.6135 19.542C50.7767 19.3903 50.8583 19.1755 50.8583 18.8976C50.8583 18.3109 50.5291 18.0176 49.8709 18.0176H48.9057V19.77H49.8709C50.2025 19.77 50.4501 19.694 50.6135 19.542Z" fill="white"/>
<path d="M53.8486 18.5233C54.0798 18.3974 54.3396 18.3347 54.6023 18.3413V19.2525H54.3802C54.0382 19.2525 53.7791 19.3401 53.603 19.5153C53.4269 19.6909 53.3388 19.9953 53.3388 20.4265V22.6665H52.4661V18.4113H53.3388V19.0289C53.4613 18.8178 53.6372 18.6433 53.8486 18.5233Z" fill="white"/>
<path d="M56.0343 22.4604C55.7148 22.2798 55.4521 22.0123 55.2762 21.6884C55.0924 21.3564 54.9999 20.9717 54.9985 20.5344C54.9985 20.1016 55.093 19.7182 55.2818 19.3844C55.4618 19.0581 55.7301 18.7902 56.0554 18.612C56.3934 18.4341 56.7691 18.3412 57.1505 18.3412C57.5318 18.3412 57.9075 18.4341 58.2456 18.612C58.5706 18.7904 58.8388 19.0582 59.0187 19.3844C59.2076 19.7182 59.3021 20.1016 59.3024 20.5344C59.3026 20.9672 59.2054 21.3508 59.0108 21.6852C58.8232 22.0131 58.5484 22.2816 58.2174 22.4604C57.8775 22.6447 57.4969 22.7393 57.111 22.7352C56.7345 22.7397 56.3633 22.645 56.0343 22.4604ZM57.7457 21.808C57.948 21.6945 58.1139 21.5252 58.2241 21.32C58.3471 21.104 58.4085 20.8416 58.4082 20.5328C58.4079 20.224 58.3492 19.9628 58.2321 19.7492C58.1252 19.5466 57.963 19.3792 57.7647 19.2668C57.573 19.1587 57.3568 19.1026 57.1372 19.104C56.9186 19.1022 56.7034 19.1584 56.5131 19.2668C56.3174 19.3788 56.1589 19.5466 56.0573 19.7492C55.9452 19.9625 55.889 20.2237 55.8887 20.5328C55.8887 20.9906 56.0048 21.3446 56.237 21.5948C56.3484 21.7164 56.4843 21.8127 56.6356 21.8771C56.7868 21.9415 56.95 21.9726 57.1142 21.9684C57.3348 21.9698 57.5521 21.9146 57.7457 21.808Z" fill="white"/>
<path d="M62.6162 18.5381C62.8494 18.6532 63.0531 18.8212 63.2113 19.0289V18.4113H64.092V22.7353C64.0981 23.0991 64.0139 23.4587 63.8468 23.7813C63.6846 24.0851 63.4387 24.3351 63.1387 24.5013C62.8298 24.6765 62.4609 24.7641 62.0319 24.7641C61.4601 24.7641 60.9854 24.6289 60.6077 24.3585C60.4266 24.2344 60.2749 24.0714 60.1636 23.8812C60.0524 23.691 59.9843 23.4783 59.9643 23.2585H60.8299C60.8963 23.4795 61.038 23.6583 61.2551 23.7949C61.4723 23.9314 61.7312 23.9997 62.0319 23.9997C62.3842 23.9997 62.6689 23.8914 62.886 23.6749C63.1031 23.4583 63.2116 23.1446 63.2113 22.7337V22.0249C63.0389 22.2496 62.8169 22.4307 62.5631 22.554C62.3092 22.6773 62.0304 22.7394 61.7486 22.7353C61.3934 22.7385 61.0444 22.6406 60.7418 22.4529C60.4345 22.2619 60.1852 21.9894 60.021 21.6653C59.841 21.3109 59.7504 20.9173 59.7572 20.5193C59.7572 20.0926 59.8451 19.7143 60.021 19.3845C60.1856 19.067 60.4339 18.8016 60.7386 18.6175C61.0434 18.4334 61.3926 18.3378 61.7478 18.3413C62.0488 18.3357 62.3466 18.4032 62.6162 18.5381ZM63.0296 19.7701C62.9206 19.5652 62.7582 19.3943 62.5599 19.2757C62.3694 19.1635 62.1525 19.1048 61.9319 19.1057C61.7074 19.1042 61.4867 19.1641 61.2932 19.279C61.0997 19.3938 60.9407 19.5594 60.833 19.7581C60.714 19.9725 60.6533 20.2257 60.6533 20.5181C60.6475 20.7865 60.7093 21.052 60.833 21.2897C60.9423 21.4996 61.107 21.6749 61.3091 21.7961C61.4977 21.9093 61.7132 21.969 61.9327 21.9689C62.153 21.9702 62.3696 21.9119 62.5599 21.8001C62.7596 21.6813 62.9227 21.5089 63.0308 21.3021C63.1551 21.0659 63.2171 20.8014 63.2109 20.5341C63.2171 20.2679 63.1546 20.0046 63.0296 19.7701Z" fill="white"/>
<path d="M66.4983 18.5233C66.7295 18.3974 66.9894 18.3347 67.2521 18.3413V19.2525H67.0303C66.6883 19.2525 66.4292 19.3401 66.2528 19.5153C66.077 19.6909 65.989 19.9953 65.989 20.4265V22.6665H65.1162V18.4113H65.989V19.0289C66.1112 18.8178 66.2871 18.6433 66.4983 18.5233Z" fill="white"/>
<path d="M67.907 19.3844C68.0716 19.0669 68.3199 18.8015 68.6247 18.6174C68.9294 18.4333 69.2786 18.3377 69.6339 18.3412C69.9655 18.3412 70.2552 18.4068 70.503 18.538C70.7344 18.656 70.9375 18.8234 71.0981 19.0288V18.4112H71.9788V22.6652H71.0981V22.032C70.9371 22.2435 70.7305 22.4153 70.4939 22.5344C70.2233 22.6711 69.9238 22.7397 69.6212 22.7344C69.2694 22.7374 68.9241 22.6394 68.6254 22.452C68.3211 22.2595 68.0743 21.9873 67.9114 21.6644C67.7314 21.31 67.6408 20.9164 67.6476 20.5184C67.6447 20.0914 67.7311 19.7134 67.907 19.3844ZM70.9164 19.77C70.807 19.5651 70.6444 19.3942 70.4459 19.2756C70.3015 19.1907 70.1417 19.1359 69.976 19.1143C69.8102 19.0928 69.6419 19.1049 69.4809 19.1501C69.3199 19.1953 69.1695 19.2725 69.0386 19.3772C68.9076 19.482 68.7989 19.6121 68.7187 19.76C68.5997 19.9744 68.539 20.2276 68.539 20.52C68.5331 20.7884 68.5949 21.0539 68.7187 21.2916C68.828 21.5014 68.9928 21.6766 69.1947 21.798C69.3833 21.9112 69.5988 21.9709 69.8183 21.9708C70.0391 21.9719 70.2561 21.9133 70.4467 21.8012C70.6462 21.6823 70.8091 21.5099 70.9172 21.3032C71.0415 21.067 71.1035 20.8025 71.0973 20.5352C71.1038 20.2686 71.0415 20.0049 70.9164 19.77Z" fill="white"/>
<path d="M79.0029 18.5501C79.266 18.6892 79.482 18.9042 79.6234 19.1677C79.7736 19.4405 79.8488 19.7698 79.8491 20.1557V22.6653H78.9835V20.2877C78.9835 19.9066 78.8889 19.6145 78.6998 19.4113C78.5107 19.2081 78.253 19.1062 77.9267 19.1057C77.5998 19.1057 77.3407 19.2075 77.1495 19.4113C76.9583 19.615 76.8626 19.9071 76.8623 20.2877V22.6653H75.9967V20.2877C75.9967 19.9066 75.9024 19.6145 75.7138 19.4113C75.5253 19.2081 75.2674 19.1062 74.9403 19.1057C74.6134 19.1057 74.3543 19.2075 74.1631 19.4113C73.9719 19.615 73.8762 19.9071 73.8759 20.2877V22.6653H73.0032V18.4113H73.8759V18.8977C74.0229 18.7193 74.2099 18.5789 74.4214 18.4881C74.6434 18.3898 74.8835 18.3398 75.1259 18.3413C75.4401 18.3367 75.7503 18.4119 76.028 18.5601C76.2906 18.7008 76.5043 18.9191 76.6405 19.1857C76.7718 18.9242 76.9795 18.7098 77.2356 18.5713C77.5021 18.4206 77.8028 18.3421 78.1083 18.3433C78.4188 18.3373 78.726 18.4083 79.0029 18.5501Z" fill="white"/>
<path d="M86.838 18.5501C87.101 18.6894 87.3169 18.9044 87.4584 19.1677C87.6087 19.4405 87.6839 19.7698 87.6842 20.1557V22.6653H86.8186V20.2877C86.8186 19.9066 86.724 19.6145 86.5349 19.4113C86.3458 19.2081 86.0882 19.1062 85.7621 19.1057C85.4353 19.1057 85.1762 19.2076 84.985 19.4113C84.7938 19.615 84.6974 19.9072 84.6958 20.2877V22.6653H83.8298V20.2877C83.8298 19.9066 83.7356 19.6145 83.5473 19.4113C83.359 19.2081 83.1012 19.1062 82.7738 19.1057C82.4469 19.1057 82.1878 19.2076 81.9966 19.4113C81.8054 19.615 81.7097 19.9072 81.7094 20.2877V22.6653H80.8367V18.4113H81.7094V18.8977C81.8558 18.7195 82.0423 18.5791 82.2533 18.4881C82.4753 18.3898 82.7154 18.3398 82.9578 18.3413C83.2729 18.3362 83.5842 18.4115 83.8627 18.5601C84.1254 18.701 84.3394 18.9192 84.476 19.1857C84.6071 18.9242 84.8149 18.7096 85.0711 18.5713C85.3376 18.4206 85.6383 18.342 85.9438 18.3433C86.2542 18.3374 86.5612 18.4084 86.838 18.5501Z" fill="white"/>
<path d="M88.7165 17.6848C88.6373 17.6061 88.5832 17.5053 88.5611 17.3954C88.5391 17.2854 88.5501 17.1714 88.5927 17.0678C88.6353 16.9642 88.7075 16.8757 88.8003 16.8138C88.893 16.7519 89.0019 16.7192 89.1132 16.72C89.1858 16.7188 89.2578 16.7326 89.325 16.7606C89.3921 16.7885 89.4529 16.83 89.5035 16.8824C89.6066 16.9901 89.6643 17.134 89.6643 17.2836C89.6643 17.4333 89.6066 17.5772 89.5035 17.6848C89.453 17.7375 89.3923 17.7792 89.3251 17.8072C89.258 17.8352 89.1858 17.849 89.1132 17.8476C89.0395 17.8494 88.9663 17.8359 88.898 17.8079C88.8298 17.7799 88.768 17.738 88.7165 17.6848ZM89.5428 18.4112V22.6652H88.67V18.4112H89.5428Z" fill="white"/>
<path d="M93.5902 18.5501C93.8524 18.6891 94.0672 18.9043 94.2067 19.1677C94.3548 19.4405 94.4287 19.7698 94.4285 20.1557V22.6653H93.5625V20.2877C93.5625 19.9066 93.4683 19.6145 93.28 19.4113C93.0917 19.2081 92.8338 19.1062 92.5064 19.1057C92.1795 19.1057 91.9205 19.2076 91.7293 19.4113C91.5381 19.615 91.4423 19.9072 91.4421 20.2877V22.6653H90.5693V18.4113H91.4421V18.8977C91.5892 18.7189 91.7768 18.5784 91.9891 18.4881C92.2127 18.3902 92.4539 18.3402 92.6976 18.3413C93.0076 18.3364 93.3141 18.4081 93.5902 18.5501Z" fill="white"/>
<path d="M97.9855 18.538C98.2187 18.6532 98.4224 18.8212 98.5806 19.0288V18.4112H99.4612V22.7352C99.4677 23.0992 99.3832 23.4589 99.2157 23.7812C99.0539 24.0852 98.808 24.3354 98.508 24.5012C98.1991 24.6764 97.8303 24.764 97.4016 24.764C96.8293 24.764 96.3543 24.6288 95.9766 24.3584C95.7955 24.2343 95.644 24.0713 95.5328 23.8811C95.4216 23.691 95.3535 23.4783 95.3336 23.2584H96.1996C96.2654 23.4795 96.407 23.6583 96.6244 23.7948C96.8418 23.9314 97.1009 23.9996 97.4016 23.9996C97.7533 23.9996 98.038 23.8914 98.2557 23.6748C98.4733 23.4583 98.5816 23.1446 98.5806 22.7336V22.0248C98.4081 22.2496 98.1862 22.4307 97.9324 22.554C97.6785 22.6773 97.3997 22.7394 97.1179 22.7352C96.7626 22.7385 96.4137 22.6406 96.1111 22.4528C95.8041 22.2617 95.555 21.9893 95.3911 21.6652C95.2105 21.3113 95.1192 20.918 95.1253 20.52C95.1253 20.0934 95.2132 19.7151 95.3891 19.3852C95.5536 19.0678 95.802 18.8024 96.1067 18.6183C96.4115 18.4342 96.7607 18.3386 97.1159 18.342C97.4172 18.336 97.7155 18.4033 97.9855 18.538ZM98.3989 19.77C98.2897 19.565 98.1268 19.394 97.928 19.2756C97.7375 19.1634 97.5206 19.1047 97.3 19.1056C97.0752 19.1043 96.8541 19.1644 96.6605 19.2796C96.4669 19.3949 96.3078 19.5609 96.2004 19.76C96.0813 19.9744 96.0206 20.2276 96.0206 20.52C96.0148 20.7884 96.0766 21.0539 96.2004 21.2916C96.3097 21.5015 96.4744 21.6767 96.6764 21.798C96.865 21.9113 97.0805 21.971 97.3 21.9708C97.5206 21.9721 97.7375 21.9136 97.928 21.8012C98.1278 21.6826 98.2909 21.5102 98.3989 21.3032C98.5232 21.067 98.5852 20.8026 98.579 20.5352C98.5856 20.2687 98.5234 20.005 98.3985 19.77H98.3989Z" fill="white"/>
<path d="M52.2824 26.564V31.93H51.4097V29.5832H48.9057V31.93H48.033V26.564H48.9057V28.8648H51.4097V26.564H52.2824Z" fill="white"/>
<path d="M53.2818 28.6492C53.4464 28.3318 53.6947 28.0664 53.9995 27.8823C54.3042 27.6982 54.6535 27.6026 55.0087 27.606C55.3403 27.606 55.6301 27.6716 55.8779 27.8028C56.1093 27.9208 56.3123 28.0883 56.4729 28.2936V27.676H57.3536V31.93H56.4729V31.2968C56.3115 31.5089 56.1041 31.681 55.8668 31.8C55.5961 31.9368 55.2967 32.0054 54.994 32C54.6422 32.0031 54.2969 31.9051 53.9983 31.7176C53.6932 31.5254 53.4457 31.2532 53.2822 30.93C53.1023 30.5757 53.0116 30.1821 53.0184 29.784C53.0182 29.3566 53.106 28.9783 53.2818 28.6492ZM56.2912 29.0348C56.182 28.8298 56.0191 28.6588 55.8203 28.5404C55.6298 28.4283 55.413 28.3696 55.1924 28.3704C54.9678 28.369 54.7471 28.4289 54.5537 28.5438C54.3602 28.6586 54.2012 28.8242 54.0935 29.0228C53.9745 29.2372 53.9138 29.4904 53.9138 29.7828C53.9079 30.0512 53.9697 30.3167 54.0935 30.5544C54.2027 30.7644 54.3675 30.9397 54.5695 31.0608C54.7581 31.1741 54.9736 31.2338 55.1932 31.2336C55.4138 31.2349 55.6307 31.1764 55.8211 31.064C56.0207 30.9456 56.1837 30.7736 56.292 30.5672C56.4163 30.331 56.4784 30.0666 56.4721 29.7992C56.4788 29.533 56.4167 29.2696 56.292 29.0348H56.2912Z" fill="white"/>
<path d="M58.3512 28.6453C58.5168 28.3237 58.7706 28.057 59.0823 27.8769C59.3939 27.6966 59.7509 27.6063 60.1534 27.6061C60.6636 27.6061 61.086 27.7283 61.4205 27.9729C61.7551 28.2174 61.981 28.5663 62.0985 29.0197H61.1567C61.0886 28.8201 60.9599 28.6471 60.789 28.5253C60.6205 28.4069 60.4089 28.3477 60.1542 28.3477C59.7969 28.3477 59.5124 28.4751 59.3005 28.7301C59.0887 28.985 58.9829 29.3414 58.9832 29.7993C58.9832 30.2571 59.0889 30.6147 59.3005 30.8721C59.5121 31.1294 59.7967 31.2583 60.1542 31.2589C60.6596 31.2589 60.994 31.0347 61.1575 30.5865H62.0993C61.9905 30.9985 61.7475 31.3616 61.4094 31.6177C61.0725 31.8723 60.6539 31.9998 60.1538 32.0001C59.7788 32.0069 59.4089 31.912 59.0827 31.7253C58.7714 31.543 58.5178 31.2753 58.3516 30.9533C58.1755 30.6213 58.0874 30.2366 58.0874 29.7993C58.0874 29.3619 58.1753 28.9773 58.3512 28.6453Z" fill="white"/>
<path d="M64.519 29.8072L66.4628 31.93H65.2838L63.7216 30.1V31.93H62.8489V26.2164H63.7216V29.5364L65.2529 27.676H66.4628L64.519 29.8072Z" fill="white"/>
</g>
<defs>
<clipPath id="clip0_29429_279">
<rect width="99.4595" height="40" fill="white"/>
</clipPath>
</defs>
</svg>
