<svg width="97" height="97" viewBox="0 0 97 97" fill="none" xmlns="http://www.w3.org/2000/svg">
<rect width="97" height="97" rx="48.5" fill="white"/>
<path d="M41.3825 75.5493L41.465 75.0487L45.3169 75.6836L44.3718 81.417L40.5926 80.794L40.6751 80.2933L43.889 80.8231L44.2298 78.7559L41.4277 78.294L41.5063 77.8176L44.3083 78.2795L44.6691 76.0911L41.3825 75.5493Z" fill="#0A0D12"/>
<path d="M36.7906 78.0418L36.2908 76.0156L36.2785 75.877L36.1702 75.9644L34.3726 77.0148L33.7926 76.7685L36.1223 75.4283L35.4594 72.8439L36.0394 73.0902L36.535 75.1057L36.5504 75.2367L36.6555 75.1569L38.45 74.114L39.03 74.3603L36.7174 75.6811L37.3631 78.285L36.7906 78.0418Z" fill="#0A0D12"/>
<path d="M31.2863 70.0987C31.5707 70.3105 31.7714 70.5754 31.8882 70.8937C32.0007 71.2086 32.0411 71.5244 32.0095 71.841L33.5782 69.7336L34.0246 70.0659L30.4377 74.8846L30.0372 74.5865L30.5308 73.9234C30.2355 74.0369 29.9251 74.0746 29.5998 74.0365C29.2712 74.0027 28.9778 73.8898 28.7196 73.6976C28.4833 73.5216 28.3041 73.31 28.1821 73.0628C28.0568 72.8199 27.9838 72.5615 27.9632 72.2877C27.9426 72.0139 27.9727 71.7404 28.0535 71.4673C28.1268 71.1953 28.2481 70.9456 28.4175 70.718C28.6553 70.3985 28.9409 70.1519 29.2742 69.9783C29.5998 69.8058 29.9389 69.7249 30.2914 69.7356C30.6439 69.7464 30.9755 69.8674 31.2863 70.0987ZM31.1178 70.5854C30.9296 70.4454 30.7334 70.3571 30.5292 70.3208C30.3218 70.2888 30.1167 70.2993 29.9139 70.3525C29.7067 70.4023 29.5144 70.487 29.337 70.6066C29.1563 70.7306 29.0008 70.8801 28.8705 71.0552C28.7336 71.239 28.6362 71.4385 28.578 71.6537C28.5155 71.8656 28.4961 72.079 28.5198 72.2939C28.5435 72.5088 28.6042 72.7104 28.702 72.8988C28.7998 73.0873 28.9384 73.2483 29.1179 73.3818C29.2317 73.4665 29.3661 73.5326 29.5212 73.5801C29.6764 73.6275 29.8418 73.652 30.0175 73.6536C30.1855 73.6563 30.3442 73.6349 30.4936 73.5897C30.6429 73.5444 30.7687 73.4714 30.8709 73.3706L31.6528 72.3202C31.7033 72.1061 31.7183 71.8895 31.6979 71.6702C31.6742 71.4553 31.6151 71.2515 31.5205 71.0587C31.4184 70.867 31.2841 70.7092 31.1178 70.5854Z" fill="#0A0D12"/>
<path d="M26.4899 65.4954C26.6834 65.7319 26.8187 65.9877 26.8958 66.263C26.9687 66.5417 26.9875 66.8189 26.9522 67.0945C26.9126 67.3736 26.8239 67.64 26.6861 67.8937C26.5448 68.1432 26.3559 68.3647 26.1194 68.5582C25.8111 68.8104 25.4712 68.9722 25.0996 69.0435C24.7245 69.1107 24.359 69.0819 24.0032 68.9571C23.6431 68.8357 23.3335 68.6167 23.0744 68.3C22.8084 67.9748 22.6551 67.6279 22.6144 67.2594C22.5703 66.8866 22.62 66.5252 22.7636 66.1751C22.903 65.8285 23.1247 65.5308 23.4288 65.282C23.4626 65.2544 23.4964 65.2268 23.5302 65.1991C23.5597 65.175 23.5847 65.1581 23.605 65.1485L25.9162 67.9737C26.1354 67.7591 26.293 67.5209 26.389 67.2591C26.4773 66.9966 26.5038 66.7317 26.4685 66.4645C26.4256 66.1965 26.3177 65.957 26.145 65.7458C25.9688 65.5304 25.7481 65.3727 25.4828 65.2724C25.2141 65.168 24.96 65.1503 24.7204 65.2194L24.516 64.7627C24.7276 64.7025 24.9537 64.6902 25.1944 64.7259C25.4351 64.7617 25.669 64.8452 25.8963 64.9765C26.1159 65.107 26.3137 65.28 26.4899 65.4954ZM25.6161 68.2403L23.6211 65.8015C23.3942 66.0153 23.2366 66.2535 23.1483 66.516C23.0565 66.7744 23.0342 67.0358 23.0814 67.3003C23.1209 67.564 23.2288 67.8036 23.405 68.019C23.5811 68.2344 23.7946 68.3875 24.0452 68.4785C24.2917 68.573 24.5545 68.6012 24.8336 68.5633C25.105 68.5245 25.3658 68.4169 25.6161 68.2403Z" fill="#0A0D12"/>
<path d="M19.3667 61.4162C19.5462 61.741 19.7883 61.9846 20.0928 62.147C20.3947 62.3045 20.7248 62.3555 21.0828 62.3001L23.4404 61.0864L23.6952 61.5812L19.9041 63.5328L19.6643 63.0671L20.5739 62.5989C20.2397 62.6052 19.9352 62.5442 19.6603 62.4156C19.383 62.2822 19.1722 62.0993 19.028 61.8667C18.9981 61.8207 18.9745 61.7807 18.957 61.7467C18.937 61.7079 18.9232 61.6752 18.9156 61.6484L19.3667 61.4162Z" fill="#0A0D12"/>
<path d="M20.832 55.059C20.8605 55.0959 20.9093 55.1522 20.9785 55.2279C21.0476 55.3035 21.1172 55.3991 21.1872 55.5145C21.2572 55.6299 21.3147 55.7606 21.3599 55.9065C21.4067 56.0577 21.4224 56.2099 21.407 56.3631C21.3901 56.5112 21.3363 56.6421 21.2459 56.7557C21.1502 56.871 21.0164 56.9553 20.8444 57.0085L17.9282 57.9113L18.1025 58.4742L17.6803 58.6049L17.5061 58.042L16.1301 58.468L15.9655 57.9364L17.3415 57.5104L17.051 56.5722L17.4732 56.4415L17.7636 57.3797L20.5312 56.5229C20.6739 56.4673 20.7673 56.3813 20.8112 56.2649C20.8535 56.1433 20.8553 56.0199 20.8166 55.8948C20.7714 55.7489 20.7068 55.6232 20.6228 55.5179C20.5335 55.4141 20.4745 55.3525 20.4455 55.3329L20.832 55.059Z" fill="#0A0D12"/>
<path d="M20.1411 47.9532L16.3201 47.8687L16.3071 48.4578L15.8652 48.448L15.8783 47.8589L15.7637 47.8564C15.4146 47.8487 15.1157 47.7929 14.8669 47.6892C14.6183 47.58 14.4306 47.4312 14.3038 47.2429C14.1716 47.0489 14.1084 46.8238 14.1141 46.5674C14.1178 46.3983 14.146 46.2352 14.1986 46.0781C14.2512 45.921 14.3196 45.7861 14.404 45.6733L14.8011 45.854C14.7395 45.9236 14.6911 46.0153 14.6559 46.1292C14.6206 46.243 14.6017 46.3572 14.5992 46.4717C14.5935 46.7281 14.69 46.9294 14.8887 47.0757C15.0875 47.2165 15.3778 47.2912 15.7597 47.2996L15.8906 47.3025L15.9166 46.1243L16.3585 46.1341L16.3324 47.3123L20.1535 47.3968L20.1411 47.9532Z" fill="#0A0D12"/>
<path d="M20.9245 41.7876C20.8563 42.0855 20.737 42.3492 20.5668 42.5789C20.3925 42.802 20.1857 42.9841 19.9462 43.1251C19.7027 43.2596 19.4417 43.3481 19.1633 43.3906C18.8795 43.4319 18.594 43.4197 18.3069 43.3539C18.0091 43.2856 17.7441 43.1717 17.512 43.0121C17.2746 42.8513 17.0788 42.6553 16.9247 42.4241C16.7653 42.1916 16.6584 41.9376 16.604 41.6621C16.5455 41.38 16.5504 41.09 16.6187 40.7922C16.6869 40.4944 16.8082 40.2339 16.9825 40.0108C17.1515 39.7864 17.3584 39.6043 17.6031 39.4645C17.8426 39.3235 18.1042 39.2323 18.3879 39.191C18.6663 39.1485 18.9545 39.1614 19.2523 39.2296C19.5395 39.2955 19.8018 39.4088 20.0392 39.5696C20.2713 39.7291 20.4671 39.9251 20.6265 40.1576C20.7818 40.3835 20.8887 40.6375 20.9472 40.9196C21.0016 41.1952 20.994 41.4845 20.9245 41.7876ZM18.441 42.8053C18.7495 42.876 19.0466 42.8741 19.3323 42.7997C19.614 42.7187 19.8555 42.5809 20.0568 42.3864C20.2528 42.1906 20.3825 41.9545 20.4459 41.6779C20.5093 41.4014 20.4927 41.1317 20.3963 40.8689C20.2998 40.6061 20.1397 40.3763 19.9162 40.1795C19.6873 39.9815 19.4213 39.8477 19.1181 39.7782C18.8097 39.7075 18.512 39.712 18.225 39.7918C17.938 39.8716 17.6939 40.0087 17.4926 40.2033C17.2912 40.3978 17.1589 40.6333 17.0955 40.9099C17.0321 41.1864 17.0513 41.4567 17.1531 41.7208C17.2561 41.9795 17.4194 42.2072 17.643 42.404C17.8612 42.5996 18.1273 42.7333 18.441 42.8053Z" fill="#0A0D12"/>
<path d="M19.79 33.637C19.6434 33.9779 19.5992 34.3185 19.6576 34.6586C19.7183 34.9937 19.8802 35.2858 20.1435 35.5347L22.5476 36.6535L22.3128 37.158L18.447 35.359L18.668 34.8841L19.5955 35.3157C19.3856 35.0555 19.2472 34.7775 19.1803 34.4816C19.1157 34.1807 19.1311 33.902 19.2264 33.6455C19.2444 33.5937 19.2615 33.5505 19.2777 33.5159C19.2961 33.4763 19.3135 33.4453 19.33 33.4229L19.79 33.637Z" fill="#0A0D12"/>
<path d="M27.3346 29.2258L23.2861 25.0576L26.0219 22.4004L26.3754 22.7643L24.0506 25.0224L25.5389 26.5547L27.4997 24.6501L27.8304 24.9906L25.8696 26.8952L27.7456 28.8266L27.3346 29.2258Z" fill="#0A0D12"/>
<path d="M32.0891 20.6384C31.7807 20.845 31.5586 21.1068 31.4227 21.424C31.2915 21.7383 31.2687 22.0715 31.3544 22.4235L32.7643 24.6693L32.293 24.9652L30.0259 21.354L30.4695 21.0755L31.0134 21.9419C30.9786 21.6094 31.0136 21.3008 31.1182 21.016C31.2276 20.7284 31.3919 20.5028 31.6114 20.3392C31.6547 20.3056 31.6925 20.2786 31.7249 20.2583C31.7618 20.2351 31.7933 20.2186 31.8193 20.2087L32.0891 20.6384Z" fill="#0A0D12"/>
<path d="M38.397 21.9415C38.11 22.0464 37.8238 22.09 37.5385 22.0723C37.2565 22.0475 36.9911 21.9732 36.7425 21.8491C36.4971 21.718 36.2807 21.5473 36.0935 21.3369C35.9043 21.1214 35.7592 20.8753 35.6581 20.5985C35.5532 20.3116 35.5045 20.0273 35.512 19.7457C35.5176 19.459 35.5754 19.1881 35.6855 18.933C35.7937 18.6727 35.9485 18.4447 36.15 18.2491C36.3548 18.0464 36.6007 17.8927 36.8877 17.7878C37.1746 17.6829 37.4592 17.6428 37.7412 17.6676C38.0214 17.6872 38.2868 17.7615 38.5373 17.8907C38.7859 18.0148 39.0048 18.1846 39.194 18.4001C39.3812 18.6105 39.5273 18.8592 39.6322 19.1462C39.7333 19.4229 39.7811 19.7046 39.7755 19.9913C39.768 20.2729 39.7102 20.5438 39.602 20.8041C39.4971 21.0573 39.3422 21.2853 39.1374 21.4879C38.9359 21.6836 38.6891 21.8348 38.397 21.9415ZM36.1913 20.4124C36.2999 20.7096 36.4632 20.9578 36.6812 21.157C36.9025 21.3491 37.1495 21.4767 37.4223 21.5396C37.6932 21.5975 37.9619 21.5777 38.2284 21.4803C38.4949 21.3829 38.7121 21.2222 38.88 20.9982C39.0479 20.7742 39.1536 20.5148 39.1969 20.2202C39.2384 19.9204 39.2057 19.6244 39.099 19.3323C38.9904 19.0351 38.8245 18.7878 38.6013 18.5905C38.3782 18.3933 38.1302 18.2631 37.8575 18.2002C37.5847 18.1372 37.315 18.1544 37.0485 18.2518C36.7821 18.3492 36.5658 18.5125 36.3998 18.7416C36.2388 18.9689 36.1367 19.2299 36.0934 19.5245C36.0481 19.8141 36.0808 20.11 36.1913 20.4124Z" fill="#0A0D12"/>
<path d="M46.5555 20.1477L46.0024 20.21L45.736 17.8434C45.6798 17.3446 45.5657 16.9896 45.3937 16.7783C45.2211 16.5617 44.9775 16.471 44.663 16.5064C44.4462 16.5309 44.2381 16.6092 44.0389 16.7414C43.839 16.8683 43.6681 17.033 43.5262 17.2357C43.3891 17.4323 43.2985 17.6511 43.2542 17.8922L43.5464 20.4865L42.9933 20.5488L42.5163 16.3117L43.0205 16.2549L43.1285 17.2145C43.2192 16.9957 43.3481 16.8 43.5154 16.6274C43.682 16.4494 43.877 16.3039 44.1004 16.1909C44.3238 16.0779 44.5602 16.0074 44.8096 15.9793C45.0427 15.9531 45.2455 15.9742 45.4179 16.0426C45.5903 16.111 45.7345 16.2211 45.8504 16.3728C45.9657 16.519 46.0579 16.7035 46.1269 16.9264C46.1953 17.1438 46.245 17.3907 46.2762 17.6673L46.5555 20.1477Z" fill="#0A0D12"/>
<path d="M51.7014 20.1916C51.6564 20.2039 51.5858 20.2276 51.4894 20.2626C51.3931 20.2976 51.2782 20.3255 51.1448 20.3462C51.0115 20.3669 50.8687 20.3703 50.7166 20.3564C50.559 20.342 50.4123 20.2984 50.2765 20.2258C50.1461 20.1536 50.0456 20.054 49.9751 19.927C49.905 19.7946 49.8781 19.6388 49.8945 19.4595L50.1722 16.4194L49.5854 16.3658L49.6256 15.9257L50.2124 15.9793L50.3434 14.5449L50.8977 14.5955L50.7666 16.0299L51.7446 16.1193L51.7044 16.5594L50.7264 16.4701L50.4629 19.3552C50.4598 19.5084 50.5037 19.6274 50.5946 19.7124C50.6909 19.7979 50.8042 19.8466 50.9346 19.8585C51.0868 19.8724 51.2275 19.8606 51.357 19.8232C51.4869 19.7802 51.5665 19.7492 51.5956 19.7299L51.7014 20.1916Z" fill="#0A0D12"/>
<path d="M55.9701 21.4412C55.6777 21.3526 55.4228 21.2154 55.2054 21.0298C54.9896 20.839 54.8196 20.6192 54.6954 20.3706C54.5728 20.1168 54.498 19.8462 54.4711 19.5587C54.4495 19.2727 54.483 18.9836 54.5716 18.6912C54.6872 18.31 54.8794 17.9863 55.1482 17.72C55.4223 17.4553 55.7419 17.2757 56.1069 17.1811C56.4735 17.0813 56.8526 17.0907 57.2443 17.2094C57.6463 17.3313 57.9669 17.5339 58.2059 17.8173C58.4502 18.1023 58.6102 18.4302 58.686 18.8009C58.7633 19.1665 58.745 19.5372 58.6311 19.9131C58.6184 19.9549 58.6058 19.9967 58.5931 20.0385C58.582 20.075 58.5707 20.1029 58.5591 20.1222L55.066 19.0634C55.0035 19.3637 55.0052 19.6493 55.0714 19.9202C55.1443 20.1875 55.2698 20.4222 55.448 20.6244C55.6329 20.823 55.8559 20.9619 56.117 21.041C56.3833 21.1218 56.6545 21.1298 56.9306 21.0653C57.212 21.0024 57.4329 20.8755 57.5933 20.6847L58.0175 20.9501C57.8753 21.1179 57.6944 21.2541 57.4746 21.3585C57.2548 21.4629 57.014 21.5239 56.7521 21.5414C56.497 21.5553 56.2364 21.5219 55.9701 21.4412ZM55.1666 18.6749L58.182 19.5889C58.2514 19.2849 58.2496 18.9993 58.1767 18.7321C58.109 18.4664 57.9818 18.2369 57.7953 18.0435C57.6156 17.8465 57.3926 17.7076 57.1263 17.6269C56.86 17.5462 56.5974 17.5378 56.3385 17.6019C56.0812 17.6608 55.8473 17.7837 55.6366 17.9707C55.4328 18.1541 55.2762 18.3888 55.1666 18.6749Z" fill="#0A0D12"/>
<path d="M63.5432 24.902L63.0638 24.6194L64.273 22.5677C64.5279 22.1352 64.6501 21.7829 64.6395 21.5107C64.6317 21.2338 64.4915 21.015 64.2189 20.8543C64.0309 20.7435 63.8175 20.681 63.5788 20.667C63.3428 20.6483 63.1073 20.6773 62.8721 20.754C62.6443 20.8287 62.4403 20.9492 62.2601 21.1153L60.9345 23.3644L60.455 23.0819L62.6201 19.4085L63.0572 19.6661L62.5669 20.4981C62.7708 20.3776 62.9915 20.2987 63.2289 20.2613C63.4691 20.2192 63.7124 20.2201 63.9588 20.264C64.2053 20.3079 64.4366 20.3936 64.6528 20.521C64.8549 20.6402 65.0043 20.7789 65.101 20.9372C65.1977 21.0955 65.2468 21.2701 65.2483 21.461C65.2526 21.6472 65.2153 21.85 65.1366 22.0696C65.0606 22.2845 64.952 22.5118 64.8107 22.7515L63.5432 24.902Z" fill="#0A0D12"/>
<path d="M67.2591 25.0116C67.5424 24.7239 67.8592 24.519 68.2093 24.3967C68.5672 24.2744 68.922 24.2447 69.2735 24.3077C69.6251 24.3706 69.935 24.5342 70.2032 24.7983C70.4558 25.0472 70.6143 25.3373 70.6785 25.6686C70.7505 25.9999 70.749 26.3163 70.6741 26.6178L72.5004 24.7636L72.8969 25.1542L69.1754 28.9324C69.1218 28.9868 69.0932 29.0391 69.0897 29.0893C69.0901 29.1356 69.1117 29.1837 69.1545 29.2335L68.8444 29.5483C68.7551 29.4834 68.6911 29.428 68.6521 29.382C68.5743 29.2977 68.535 29.1938 68.534 29.0703C68.5331 28.9469 68.569 28.8482 68.6417 28.7744L68.9347 28.477C68.6189 28.5566 68.3006 28.5532 67.9797 28.4669C67.6588 28.3806 67.3876 28.2283 67.166 28.0101C66.9561 27.8033 66.8039 27.5691 66.7093 27.3075C66.6186 27.0497 66.5799 26.7818 66.5933 26.5039C66.6105 26.2299 66.6741 25.9632 66.784 25.7038C66.9016 25.4445 67.06 25.2137 67.2591 25.0116ZM69.336 27.9763L70.2606 27.0376C70.3479 26.8479 70.3907 26.6411 70.389 26.4174C70.3912 26.1897 70.3529 25.972 70.2741 25.7643C70.2031 25.5565 70.0977 25.3836 69.9577 25.2458C69.7945 25.085 69.6123 24.9745 69.4112 24.9143C69.214 24.8502 69.0093 24.8286 68.7973 24.8495C68.5891 24.8742 68.387 24.9355 68.191 25.0335C67.995 25.1314 67.8204 25.2581 67.6672 25.4136C67.5064 25.5768 67.3805 25.7591 67.2894 25.9604C67.2022 26.1656 67.1537 26.3781 67.1438 26.5981C67.1377 26.8142 67.172 27.0204 67.2468 27.2166C67.3216 27.4128 67.4387 27.5894 67.5981 27.7464C67.6991 27.8459 67.8232 27.9298 67.9704 27.9982C68.1175 28.0665 68.2722 28.1155 68.4344 28.1451C68.6044 28.1747 68.7684 28.1754 68.9264 28.1472C69.0843 28.119 69.2209 28.062 69.336 27.9763Z" fill="#0A0D12"/>
<path d="M72.9622 35.661L78.3744 33.5463L79.0922 35.3834C79.3166 35.9576 79.3813 36.483 79.2863 36.9594C79.1984 37.439 78.9863 37.8557 78.6501 38.2097C78.3191 38.5617 77.9045 38.835 77.4065 39.0296C76.8576 39.244 76.3382 39.324 75.8483 39.2694C75.3603 39.2199 74.9281 39.0432 74.5516 38.7392C74.177 38.4404 73.8865 38.0267 73.68 37.4982L72.9622 35.661ZM77.198 38.496C77.6299 38.3272 77.9818 38.0959 78.2537 37.8023C78.5276 37.5137 78.6989 37.1802 78.7678 36.8018C78.8418 36.4214 78.7924 36.0102 78.6196 35.568L78.1103 34.2645L73.6433 36.01L74.1526 37.3135C74.3274 37.7607 74.5734 38.098 74.8907 38.3255C75.2081 38.553 75.5652 38.68 75.9622 38.7064C76.3642 38.7309 76.7762 38.6608 77.198 38.496Z" fill="#0A0D12"/>
<path d="M75.4621 44.8238C75.4276 44.5202 75.4525 44.2318 75.5367 43.9587C75.6264 43.6849 75.7608 43.4417 75.9398 43.2292C76.1242 43.016 76.3431 42.8401 76.5964 42.7015C76.8503 42.5683 77.1291 42.4844 77.4326 42.4499C77.8284 42.4049 78.2018 42.4531 78.5528 42.5944C78.9045 42.7411 79.196 42.9633 79.4276 43.2609C79.6645 43.558 79.8061 43.9098 79.8523 44.3164C79.8998 44.7338 79.8408 45.1084 79.6754 45.4402C79.5105 45.7775 79.273 46.0543 78.9626 46.2708C78.6577 46.4867 78.3101 46.6168 77.9197 46.6612C77.8764 46.6661 77.833 46.6711 77.7896 46.676C77.7517 46.6803 77.7216 46.681 77.6992 46.6781L77.2869 43.0513C76.9864 43.1129 76.7249 43.2278 76.5024 43.3958C76.2859 43.5687 76.1201 43.777 76.0051 44.0207C75.896 44.2693 75.8569 44.529 75.8878 44.8001C75.9192 45.0766 76.0193 45.3288 76.188 45.5567C76.3573 45.7901 76.5613 45.9426 76.8001 46.0143L76.7245 46.5088C76.5141 46.4449 76.3174 46.3327 76.1344 46.1723C75.9514 46.0119 75.8 45.815 75.6801 45.5815C75.5662 45.3528 75.4936 45.1003 75.4621 44.8238ZM77.6835 42.9897L78.0395 46.1204C78.346 46.0636 78.6075 45.9488 78.824 45.7759C79.041 45.6084 79.2014 45.4008 79.305 45.1529C79.4146 44.9098 79.4537 44.65 79.4223 44.3735C79.3909 44.097 79.2944 43.8526 79.133 43.6404C78.977 43.4275 78.7714 43.2614 78.5162 43.1421C78.2671 43.0277 77.9895 42.9769 77.6835 42.9897Z" fill="#0A0D12"/>
<path d="M75.5684 50.8601L80.006 49.6473L79.9376 50.2244L76.0844 51.2344L79.5935 53.1258L79.5289 53.6703L75.498 51.4534L75.5684 50.8601Z" fill="#0A0D12"/>
<path d="M73.9643 57.4345C74.0689 57.1474 74.2198 56.9005 74.4171 56.6936C74.6195 56.4886 74.8483 56.3309 75.1033 56.2206C75.3635 56.1121 75.6378 56.0523 75.9264 56.0413C76.213 56.0354 76.4999 56.0847 76.787 56.1893C77.1613 56.3256 77.4739 56.5353 77.7251 56.8183C77.9743 57.1065 78.1361 57.4355 78.2105 57.8052C78.29 58.1767 78.2598 58.5548 78.1197 58.9393C77.976 59.334 77.756 59.643 77.4599 59.8661C77.1619 60.0943 76.8258 60.2361 76.4514 60.2914C76.0822 60.3485 75.713 60.3099 75.3439 60.1755C75.3029 60.1605 75.2619 60.1456 75.2209 60.1306C75.185 60.1176 75.1577 60.1047 75.1391 60.0922L76.3882 56.6624C76.0918 56.5835 75.8065 56.5696 75.5324 56.6207C75.2615 56.6789 75.0203 56.7913 74.8085 56.9581C74.6001 57.1319 74.4492 57.3469 74.3558 57.6032C74.2606 57.8647 74.2376 58.135 74.2869 58.4143C74.3343 58.6987 74.4488 58.9262 74.6306 59.0969L74.3423 59.5058C74.1825 59.3547 74.0565 59.1665 73.9643 58.9413C73.8721 58.7161 73.8244 58.4723 73.8213 58.2099C73.8214 57.9544 73.8691 57.696 73.9643 57.4345ZM76.7706 56.7843L75.6923 59.7449C75.992 59.8308 76.2773 59.8447 76.5482 59.7866C76.8172 59.7336 77.0533 59.6193 77.2566 59.4437C77.4632 59.275 77.6141 59.06 77.7094 58.7985C77.8046 58.537 77.8273 58.2753 77.7776 58.0133C77.733 57.7532 77.6231 57.5128 77.4479 57.2923C77.276 57.0787 77.0503 56.9094 76.7706 56.7843Z" fill="#0A0D12"/>
<path d="M77.0973 64.9662L76.8086 65.442L72.5268 62.8433C72.3449 62.7329 72.2061 62.6933 72.1105 62.7246C72.0149 62.756 71.9388 62.8183 71.8822 62.9116C71.8313 62.9955 71.7896 63.0851 71.7573 63.1804C71.725 63.2757 71.6998 63.3593 71.6817 63.4313L71.2459 63.2817C71.2624 63.1704 71.2986 63.0424 71.3545 62.8977C71.4076 62.7576 71.4625 62.6409 71.5191 62.5476C71.6493 62.333 71.817 62.1987 72.0222 62.1445C72.2246 62.095 72.4354 62.1368 72.6546 62.2698L77.0973 64.9662Z" fill="#0A0D12"/>
<path d="M68.3717 66.6507C68.5781 66.4254 68.812 66.2549 69.0734 66.1392C69.3352 66.0312 69.605 65.975 69.8828 65.9706C70.161 65.9739 70.4317 66.0257 70.6948 66.1262C70.9619 66.2304 71.2041 66.382 71.4214 66.581C71.6467 66.7874 71.8208 67.0173 71.9439 67.2707C72.071 67.5277 72.1445 67.7948 72.1643 68.072C72.1882 68.3529 72.1557 68.6265 72.067 68.893C71.9785 69.1672 71.8311 69.4169 71.6247 69.6422C71.4183 69.8675 71.1842 70.0341 70.9225 70.1421C70.6648 70.2538 70.395 70.31 70.1131 70.3107C69.8353 70.3152 69.5628 70.2653 69.2956 70.1611C69.0325 70.0606 68.7883 69.9072 68.563 69.7008C68.3458 69.5017 68.1736 69.2737 68.0465 69.0167C67.9235 68.7633 67.85 68.4962 67.8261 68.2153C67.8026 67.9422 67.835 67.6685 67.9235 67.3943C68.0122 67.1279 68.1616 66.88 68.3717 66.6507ZM71.0339 66.9919C70.8005 66.7781 70.5412 66.633 70.256 66.5567C69.9711 66.488 69.6931 66.4886 69.4219 66.5584C69.1548 66.6319 68.9254 66.7732 68.7338 66.9824C68.5421 67.1916 68.4234 67.4343 68.3775 67.7104C68.3317 67.9866 68.3574 68.2655 68.4546 68.547C68.5559 68.8322 68.7212 69.0798 68.9505 69.2899C69.1839 69.5037 69.445 69.6468 69.7339 69.7191C70.0228 69.7914 70.3029 69.7927 70.574 69.7229C70.8451 69.6531 71.0765 69.5136 71.2682 69.3045C71.4599 69.0953 71.5766 68.8507 71.6184 68.5709C71.6566 68.295 71.627 68.0163 71.5297 67.7348C71.4365 67.457 71.2712 67.2093 71.0339 66.9919Z" fill="#0A0D12"/>
<path d="M63.0916 71.1409C63.3875 70.9454 63.7049 70.8469 64.0439 70.8452C64.3783 70.8466 64.689 70.916 64.976 71.0534L63.5279 68.8615L63.9922 68.5547L67.3035 73.5668L66.8869 73.842L66.4313 73.1523C66.4375 73.4686 66.3674 73.7733 66.2209 74.0662C66.0774 74.3637 65.8714 74.6012 65.6028 74.7787C65.357 74.9411 65.097 75.0376 64.823 75.0682C64.552 75.1034 64.2842 75.0841 64.0197 75.0104C63.7552 74.9366 63.5083 74.8153 63.279 74.6464C63.0481 74.485 62.8545 74.286 62.6981 74.0492C62.4786 73.7169 62.3438 73.3645 62.2939 72.9921C62.2425 72.6271 62.2818 72.2808 62.4118 71.9529C62.5418 71.6251 62.7684 71.3544 63.0916 71.1409ZM63.492 71.4649C63.2963 71.5942 63.1466 71.7487 63.0429 71.9283C62.9423 72.1125 62.8824 72.309 62.8634 72.5178C62.8398 72.7295 62.8541 72.9392 62.9062 73.1467C62.9613 73.3588 63.049 73.5559 63.1693 73.738C63.2956 73.9292 63.45 74.0887 63.6326 74.2166C63.8106 74.3475 64.0047 74.4383 64.2148 74.4891C64.425 74.5399 64.6353 74.5514 64.8457 74.5235C65.0562 74.4957 65.2547 74.4201 65.4414 74.2968C65.5597 74.2186 65.6676 74.1146 65.765 73.9849C65.8624 73.8551 65.9417 73.7079 66.0029 73.5432C66.0626 73.3861 66.0965 73.2296 66.1047 73.0738C66.113 72.918 66.0871 72.7749 66.0271 72.6445L65.3053 71.5519C65.1212 71.4316 64.9225 71.3437 64.7094 71.2884C64.4993 71.2376 64.2875 71.2238 64.074 71.2471C63.859 71.278 63.665 71.3506 63.492 71.4649Z" fill="#0A0D12"/>
<path d="M57.1327 74.085C57.4209 73.9835 57.7076 73.9433 57.9926 73.9644C58.2795 73.9906 58.5466 74.0672 58.7937 74.1942C59.0427 74.3264 59.2631 74.5004 59.4548 74.7163C59.6414 74.9341 59.7854 75.187 59.8869 75.4752C60.0192 75.8509 60.0557 76.2256 59.9964 76.5994C59.9319 76.9749 59.7805 77.3088 59.5421 77.601C59.3055 77.8983 58.9942 78.1149 58.6083 78.2508C58.212 78.3903 57.8337 78.4166 57.4733 78.3294C57.1077 78.2441 56.7848 78.0744 56.5044 77.8203C56.2259 77.5713 56.0213 77.2615 55.8909 76.891C55.8764 76.8498 55.8619 76.8087 55.8474 76.7675C55.8347 76.7315 55.8273 76.7022 55.8252 76.6798L59.2681 75.4675C59.1409 75.1884 58.9705 74.9592 58.757 74.7798C58.5401 74.6075 58.3 74.4924 58.0368 74.4347C57.7702 74.384 57.5082 74.4039 57.2509 74.4946C56.9884 74.587 56.765 74.7409 56.5805 74.9562C56.3909 75.1734 56.2878 75.4063 56.2713 75.6551L55.7723 75.692C55.7876 75.4726 55.853 75.2558 55.9685 75.0416C56.0839 74.8274 56.2421 74.6358 56.4429 74.4667C56.6403 74.3046 56.8703 74.1774 57.1327 74.085ZM59.4167 75.8403L56.4447 76.8869C56.5686 77.173 56.739 77.4022 56.9558 77.5745C57.1676 77.7487 57.4058 77.8586 57.6706 77.9042C57.9321 77.9568 58.194 77.9368 58.4565 77.8444C58.7189 77.752 58.9356 77.6034 59.1064 77.3986C59.2791 77.199 59.395 76.9615 59.4543 76.6861C59.5101 76.4177 59.4976 76.1358 59.4167 75.8403Z" fill="#0A0D12"/>
<path d="M50.8766 79.3944C51.2431 79.3361 51.5546 79.1914 51.8108 78.9602C52.0616 78.7298 52.2219 78.4368 52.2915 78.0813L51.9521 75.4514L52.5041 75.3802L53.0498 79.6091L52.5303 79.6761L52.3994 78.6615C52.2917 78.978 52.1307 79.2435 51.9163 79.4583C51.6966 79.6737 51.4528 79.8096 51.185 79.8662C51.1316 79.8786 51.086 79.8872 51.0481 79.8921C51.0048 79.8977 50.9693 79.8995 50.9415 79.8976L50.8766 79.3944Z" fill="#0A0D12"/>
<path d="M47.9753 33.4578C55.545 33.4578 61.681 39.5938 61.681 47.1635C61.681 54.7332 55.545 60.8693 47.9753 60.8693C40.4056 60.8693 34.2695 54.7332 34.2695 47.1635C34.2695 39.5938 40.4056 33.4578 47.9753 33.4578ZM47.9753 59.156C48.8689 59.156 50.1394 58.3871 51.2886 56.0887C51.7327 55.2006 52.1165 54.1548 52.4159 52.9885H43.5346C43.8341 54.1548 44.2178 55.2006 44.6619 56.0887C45.8111 58.3871 47.081 59.156 47.9753 59.156ZM43.1714 51.2752H52.7791C52.995 49.9985 53.1149 48.6163 53.1149 47.1635C53.1178 45.9018 53.0239 44.6418 52.834 43.3944H43.1166C42.9267 44.6418 42.8328 45.9018 42.8356 47.1635C42.8356 48.6163 42.9556 49.9985 43.1714 51.2752ZM54.1799 52.9885C53.6515 55.2376 52.8257 57.1529 51.8047 58.5317C54.6346 57.5747 57.0071 55.5987 58.4602 52.9885H54.1799ZM59.2441 51.2752C59.7239 49.9575 59.9688 48.5659 59.9678 47.1635C59.9678 45.8471 59.7554 44.58 59.3634 43.3944H54.5664C54.7424 44.643 54.8299 45.9026 54.8282 47.1635C54.8282 48.5958 54.7185 49.9773 54.5143 51.2752H59.2441ZM41.4363 51.2752C41.2259 49.9148 41.121 48.5401 41.1224 47.1635C41.1224 45.8567 41.2135 44.5916 41.3849 43.3944H36.5872C36.1858 44.6105 35.9817 45.8829 35.9827 47.1635C35.9827 48.6081 36.2384 49.9931 36.7064 51.2752H41.4363ZM37.4897 52.9885C38.9429 55.5988 41.3157 57.5749 44.1459 58.5317C43.1248 57.1529 42.299 55.2376 41.7707 52.9885H37.4897ZM43.4496 41.6812H52.5009C52.1905 40.3757 51.7759 39.2128 51.2886 38.2383C50.1394 35.9399 48.8696 35.171 47.9753 35.171C47.0817 35.171 45.8111 35.9399 44.6619 38.2383C44.1747 39.2128 43.7601 40.3764 43.4496 41.6812ZM54.258 41.6812H58.6438C57.2144 38.906 54.7619 36.7953 51.8047 35.7953C52.8771 37.244 53.7344 39.2834 54.258 41.6812ZM44.1459 35.7953C41.1887 36.7953 38.7362 38.906 37.3067 41.6812H41.6926C42.2161 39.2834 43.0734 37.244 44.1459 35.7953Z" fill="#0A0D12"/>
</svg>
