<svg width="72" height="72" viewBox="0 0 72 72" fill="none" xmlns="http://www.w3.org/2000/svg">
<path d="M29.2575 63.4412L29.34 62.9405L33.1919 63.5755L32.2468 69.3088L28.4676 68.6858L28.5501 68.1852L31.764 68.715L32.1048 66.6477L29.3027 66.1858L29.3813 65.7094L32.1833 66.1713L32.5441 63.9829L29.2575 63.4412Z" fill="#0A0D12"/>
<path d="M24.6656 65.9337L24.1658 63.9075L24.1535 63.7689L24.0452 63.8563L22.2476 64.9067L21.6676 64.6603L23.9973 63.3202L23.3344 60.7357L23.9144 60.982L24.41 62.9975L24.4254 63.1286L24.5305 63.0487L26.325 62.0058L26.905 62.2522L24.5924 63.5729L25.2381 66.1768L24.6656 65.9337Z" fill="#0A0D12"/>
<path d="M19.1613 57.9905C19.4457 58.2023 19.6464 58.4673 19.7632 58.7855C19.8757 59.1005 19.9161 59.4162 19.8845 59.7328L21.4532 57.6254L21.8996 57.9577L18.3127 62.7764L17.9122 62.4784L18.4058 61.8153C18.1105 61.9288 17.8001 61.9664 17.4748 61.9283C17.1462 61.8946 16.8528 61.7816 16.5946 61.5894C16.3583 61.4135 16.1791 61.2019 16.0571 60.9546C15.9318 60.7117 15.8588 60.4534 15.8382 60.1795C15.8176 59.9057 15.8477 59.6323 15.9285 59.3592C16.0018 59.0872 16.1231 58.8374 16.2925 58.6098C16.5303 58.2903 16.8159 58.0438 17.1492 57.8701C17.4748 57.6976 17.8139 57.6168 18.1664 57.6275C18.5189 57.6382 18.8505 57.7592 19.1613 57.9905ZM18.9928 58.4773C18.8046 58.3372 18.6084 58.249 18.4042 58.2126C18.1968 58.1806 17.9917 58.1912 17.7889 58.2443C17.5817 58.2942 17.3894 58.3789 17.212 58.4985C17.0313 58.6224 16.8758 58.7719 16.7455 58.947C16.6086 59.1308 16.5112 59.3303 16.453 59.5455C16.3905 59.7574 16.3711 59.9708 16.3948 60.1857C16.4185 60.4006 16.4792 60.6023 16.577 60.7907C16.6748 60.9791 16.8134 61.1401 16.9929 61.2737C17.1067 61.3584 17.2411 61.4245 17.3962 61.4719C17.5514 61.5194 17.7168 61.5439 17.8925 61.5454C18.0605 61.5481 18.2192 61.5268 18.3686 61.4815C18.5179 61.4362 18.6437 61.3632 18.7459 61.2624L19.5278 60.212C19.5783 59.998 19.5933 59.7813 19.5729 59.5621C19.5492 59.3472 19.4901 59.1433 19.3955 58.9505C19.2934 58.7588 19.1591 58.6011 18.9928 58.4773Z" fill="#0A0D12"/>
<path d="M14.3649 53.3872C14.5584 53.6237 14.6937 53.8796 14.7708 54.1548C14.8437 54.4335 14.8625 54.7107 14.8272 54.9863C14.7876 55.2654 14.6989 55.5318 14.5611 55.7856C14.4198 56.0351 14.2309 56.2566 13.9944 56.45C13.6861 56.7022 13.3462 56.864 12.9746 56.9354C12.5995 57.0025 12.234 56.9737 11.8782 56.8489C11.5181 56.7276 11.2085 56.5085 10.9494 56.1918C10.6834 55.8666 10.5301 55.5198 10.4894 55.1512C10.4453 54.7785 10.495 54.417 10.6386 54.067C10.778 53.7203 10.9997 53.4226 11.3038 53.1739C11.3376 53.1463 11.3714 53.1186 11.4052 53.091C11.4347 53.0668 11.4597 53.0499 11.48 53.0403L13.7912 55.8656C14.0104 55.651 14.168 55.4128 14.264 55.151C14.3523 54.8884 14.3788 54.6235 14.3435 54.3563C14.3006 54.0884 14.1927 53.8488 14.02 53.6377C13.8438 53.4223 13.6231 53.2645 13.3578 53.1643C13.0891 53.0598 12.835 53.0422 12.5954 53.1112L12.391 52.6546C12.6026 52.5943 12.8287 52.5821 13.0694 52.6178C13.3101 52.6535 13.544 52.737 13.7713 52.8683C13.9909 52.9989 14.1887 53.1718 14.3649 53.3872ZM13.4911 56.1321L11.4961 53.6933C11.2692 53.9071 11.1116 54.1453 11.0233 54.4079C10.9315 54.6662 10.9092 54.9277 10.9564 55.1922C10.9959 55.4559 11.1038 55.6954 11.28 55.9108C11.4561 56.1262 11.6696 56.2794 11.9202 56.3704C12.1667 56.4649 12.4295 56.4931 12.7086 56.4551C12.98 56.4164 13.2408 56.3087 13.4911 56.1321Z" fill="#0A0D12"/>
<path d="M7.24173 49.308C7.42125 49.6329 7.66325 49.8765 7.96775 50.0388C8.26975 50.1963 8.59978 50.2474 8.95784 50.1919L11.3154 48.9782L11.5702 49.473L7.77908 51.4247L7.53934 50.959L8.44891 50.4907C8.11468 50.4971 7.81015 50.436 7.53534 50.3075C7.25802 50.1741 7.04723 49.9911 6.90296 49.7585C6.87314 49.7125 6.84949 49.6725 6.83201 49.6386C6.81203 49.5998 6.79822 49.567 6.79058 49.5402L7.24173 49.308Z" fill="#0A0D12"/>
<path d="M8.70697 42.9509C8.73551 42.9877 8.78435 43.044 8.85348 43.1197C8.9226 43.1954 8.99216 43.2909 9.06216 43.4064C9.13216 43.5218 9.18975 43.6524 9.23493 43.7984C9.28172 43.9495 9.29743 44.1017 9.28205 44.255C9.26506 44.403 9.21133 44.5339 9.12087 44.6476C9.02519 44.7629 8.89136 44.8471 8.71936 44.9004L5.80323 45.8032L5.97749 46.3661L5.55532 46.4968L5.38105 45.9339L4.00508 46.3599L3.84049 45.8282L5.21647 45.4022L4.92603 44.4641L5.3482 44.3334L5.63865 45.2716L8.40623 44.4147C8.54894 44.3591 8.64226 44.2731 8.68619 44.1567C8.7285 44.0351 8.73029 43.9118 8.69156 43.7867C8.64638 43.6407 8.58178 43.5151 8.49776 43.4097C8.40853 43.306 8.34946 43.2443 8.32054 43.2247L8.70697 42.9509Z" fill="#0A0D12"/>
<path d="M8.01615 35.8451L4.19509 35.7605L4.18206 36.3496L3.74022 36.3399L3.75326 35.7508L3.63871 35.7482C3.2896 35.7405 2.99068 35.6848 2.74193 35.581C2.49331 35.4718 2.30559 35.3231 2.17878 35.1347C2.04663 34.9408 1.9834 34.7156 1.98907 34.4592C1.99281 34.2901 2.02098 34.127 2.07357 33.9699C2.12616 33.8128 2.19464 33.6779 2.27899 33.5652L2.67612 33.7459C2.61455 33.8155 2.56613 33.9072 2.53087 34.021C2.4956 34.1348 2.4767 34.249 2.47417 34.3636C2.4685 34.6199 2.565 34.8213 2.76369 34.9676C2.9625 35.1084 3.25282 35.183 3.63465 35.1915L3.76557 35.1944L3.79164 34.0161L4.23347 34.0259L4.2074 35.2041L8.02846 35.2887L8.01615 35.8451Z" fill="#0A0D12"/>
<path d="M8.79953 29.6795C8.73126 29.9773 8.61203 30.241 8.44183 30.4707C8.26753 30.6939 8.06066 30.8759 7.82122 31.017C7.57769 31.1514 7.3167 31.24 7.03826 31.2825C6.75451 31.3238 6.46905 31.3115 6.18187 31.2457C5.88405 31.1774 5.61909 31.0635 5.38698 30.904C5.14955 30.7432 4.95379 30.5472 4.79969 30.3159C4.64027 30.0835 4.53337 29.8295 4.47898 29.5539C4.4205 29.2718 4.42539 28.9819 4.49366 28.684C4.56193 28.3862 4.68322 28.1257 4.85751 27.9026C5.02649 27.6783 5.23336 27.4962 5.47812 27.3564C5.71756 27.2153 5.97916 27.1242 6.26291 27.0829C6.54134 27.0403 6.82947 27.0532 7.12728 27.1215C7.41446 27.1873 7.67677 27.3006 7.91419 27.4614C8.1463 27.621 8.34206 27.817 8.50149 28.0494C8.65681 28.2754 8.76371 28.5294 8.82219 28.8115C8.87657 29.087 8.86902 29.3764 8.79953 29.6795ZM6.31602 30.6971C6.62447 30.7678 6.92157 30.7659 7.20732 30.6915C7.48897 30.6105 7.73046 30.4728 7.93179 30.2782C8.1278 30.0825 8.25751 29.8463 8.3209 29.5698C8.38429 29.2932 8.36775 29.0235 8.27126 28.7607C8.17477 28.4979 8.01474 28.2681 7.79117 28.0713C7.56228 27.8733 7.29626 27.7396 6.99313 27.6701C6.68468 27.5994 6.38697 27.6039 6.1 27.6836C5.81303 27.7634 5.56888 27.9006 5.36755 28.0951C5.16622 28.2896 5.03386 28.5252 4.97047 28.8017C4.90707 29.0783 4.92628 29.3486 5.02808 29.6126C5.13111 29.8713 5.29441 30.0991 5.51798 30.2959C5.73624 30.4914 6.00225 30.6252 6.31602 30.6971Z" fill="#0A0D12"/>
<path d="M7.665 21.5288C7.51835 21.8698 7.47422 22.2103 7.53259 22.5504C7.59326 22.8856 7.75525 23.1776 8.01854 23.4265L10.4226 24.5453L10.1878 25.0499L6.322 23.2508L6.54299 22.7759L7.47049 23.2076C7.26058 22.9474 7.12218 22.6693 7.05528 22.3734C6.99069 22.0725 7.00605 21.7938 7.10137 21.5373C7.11944 21.4855 7.13654 21.4423 7.15265 21.4077C7.17107 21.3681 7.1885 21.3371 7.20496 21.3147L7.665 21.5288Z" fill="#0A0D12"/>
<path d="M15.2096 17.1176L11.1611 12.9494L13.8969 10.2922L14.2504 10.6562L11.9256 12.9142L13.4139 14.4465L15.3747 12.542L15.7054 12.8825L13.7446 14.787L15.6206 16.7185L15.2096 17.1176Z" fill="#0A0D12"/>
<path d="M19.9641 8.53029C19.6557 8.7368 19.4336 8.99866 19.2977 9.31586C19.1665 9.63017 19.1437 9.96334 19.2294 10.3154L20.6393 12.5612L20.168 12.8571L17.9009 9.2458L18.3445 8.9673L18.8884 9.83373C18.8536 9.50125 18.8886 9.19263 18.9932 8.90787C19.1026 8.62022 19.2669 8.39462 19.4864 8.23109C19.5297 8.19746 19.5675 8.17049 19.5999 8.15018C19.6368 8.12697 19.6683 8.11043 19.6943 8.10054L19.9641 8.53029Z" fill="#0A0D12"/>
<path d="M26.272 9.83337C25.985 9.93825 25.6988 9.98183 25.4135 9.96411C25.1315 9.93939 24.8661 9.865 24.6175 9.74094C24.3721 9.60988 24.1557 9.43915 23.9685 9.22876C23.7793 9.01324 23.6342 8.76711 23.5331 8.49038C23.4282 8.20341 23.3795 7.91914 23.387 7.63757C23.3926 7.35088 23.4504 7.07996 23.5605 6.8248C23.6687 6.56452 23.8235 6.33656 24.025 6.14092C24.2298 5.93828 24.4757 5.78452 24.7627 5.67965C25.0496 5.57477 25.3342 5.53469 25.6162 5.55941C25.8964 5.579 26.1618 5.65339 26.4123 5.78258C26.6609 5.90664 26.8798 6.07643 27.069 6.29195C27.2562 6.50235 27.4023 6.75103 27.5072 7.03801C27.6083 7.31474 27.6561 7.59645 27.6505 7.88313C27.643 8.1647 27.5852 8.43562 27.477 8.69591C27.3721 8.94919 27.2172 9.17715 27.0124 9.37979C26.8109 9.57543 26.5641 9.72662 26.272 9.83337ZM24.0663 8.30423C24.1749 8.60146 24.3382 8.84965 24.5562 9.04881C24.7775 9.24097 25.0245 9.36853 25.2973 9.43149C25.5682 9.48932 25.8369 9.46955 26.1034 9.37216C26.3699 9.27477 26.5871 9.11407 26.755 8.89005C26.9229 8.66603 27.0286 8.40668 27.0719 8.11201C27.1134 7.81221 27.0807 7.51626 26.974 7.22416C26.8654 6.92693 26.6995 6.67968 26.4763 6.48239C26.2532 6.2851 26.0052 6.15498 25.7325 6.09202C25.4597 6.02907 25.19 6.04628 24.9235 6.14367C24.6571 6.24106 24.4408 6.40432 24.2748 6.63347C24.1138 6.86074 24.0117 7.12171 23.9684 7.41638C23.9231 7.70593 23.9558 8.00188 24.0663 8.30423Z" fill="#0A0D12"/>
<path d="M34.4305 8.03959L33.8774 8.10185L33.611 5.73523C33.5548 5.23642 33.4407 4.8814 33.2687 4.67016C33.0961 4.45351 32.8525 4.36288 32.538 4.39829C32.3212 4.42271 32.1131 4.50104 31.9139 4.63328C31.714 4.76011 31.5431 4.92485 31.4012 5.1275C31.2641 5.32413 31.1735 5.54297 31.1292 5.78405L31.4214 8.37839L30.8683 8.44066L30.3913 4.2035L30.8955 4.14673L31.0035 5.10639C31.0942 4.88754 31.2231 4.69184 31.3904 4.51927C31.557 4.34128 31.752 4.19579 31.9754 4.08279C32.1988 3.96979 32.4352 3.89925 32.6846 3.87117C32.9177 3.84492 33.1205 3.86601 33.2929 3.93445C33.4653 4.00288 33.6095 4.11293 33.7254 4.2646C33.8407 4.41084 33.9329 4.59538 34.0019 4.81821C34.0703 5.03563 34.12 5.28259 34.1512 5.5591L34.4305 8.03959Z" fill="#0A0D12"/>
<path d="M39.5764 8.08341C39.5314 8.09574 39.4608 8.11942 39.3644 8.15445C39.2681 8.18948 39.1532 8.21734 39.0198 8.23803C38.8865 8.25872 38.7437 8.26211 38.5916 8.24822C38.434 8.23382 38.2873 8.19029 38.1515 8.11761C38.0211 8.04544 37.9206 7.94586 37.8501 7.81888C37.78 7.68646 37.7531 7.5306 37.7695 7.3513L38.0472 4.31128L37.4604 4.25767L37.5006 3.81756L38.0874 3.87116L38.2184 2.43673L38.7727 2.48736L38.6416 3.92179L39.6196 4.01114L39.5794 4.45125L38.6014 4.3619L38.3379 7.24707C38.3348 7.4002 38.3787 7.51927 38.4696 7.60427C38.5659 7.68977 38.6792 7.73848 38.8096 7.75039C38.9618 7.76429 39.1025 7.75249 39.232 7.71501C39.3619 7.67209 39.4415 7.641 39.4706 7.62175L39.5764 8.08341Z" fill="#0A0D12"/>
<path d="M43.8451 9.33303C43.5527 9.2444 43.2978 9.10727 43.0804 8.92165C42.8646 8.7308 42.6946 8.51109 42.5704 8.2625C42.4478 8.00868 42.373 7.73802 42.3461 7.45052C42.3245 7.16459 42.358 6.87543 42.4466 6.58303C42.5622 6.20186 42.7544 5.87813 43.0232 5.61186C43.2973 5.34716 43.6169 5.16751 43.9819 5.07292C44.3485 4.97311 44.7276 4.98256 45.1193 5.10126C45.5213 5.22313 45.8419 5.42577 46.0809 5.70919C46.3252 5.99418 46.4852 6.32205 46.561 6.69279C46.6383 7.05831 46.62 7.42904 46.5061 7.80498C46.4934 7.84676 46.4808 7.88853 46.4681 7.9303C46.457 7.96685 46.4457 7.99478 46.4341 8.01408L42.941 6.95523C42.8785 7.25554 42.8802 7.54115 42.9464 7.81204C43.0193 8.0793 43.1448 8.31405 43.323 8.51628C43.5079 8.71488 43.7309 8.85374 43.992 8.93288C44.2583 9.0136 44.5295 9.02169 44.8056 8.95716C45.087 8.8942 45.3079 8.76732 45.4683 8.57651L45.8925 8.8419C45.7503 9.00977 45.5694 9.14591 45.3496 9.25032C45.1298 9.35474 44.889 9.41572 44.6271 9.43326C44.372 9.44716 44.1114 9.41375 43.8451 9.33303ZM43.0416 6.5667L46.057 7.48073C46.1264 7.17678 46.1246 6.89117 46.0517 6.62391C45.984 6.35824 45.8568 6.12871 45.6703 5.93534C45.4906 5.73833 45.2676 5.59946 45.0013 5.51874C44.735 5.43802 44.4724 5.42969 44.2135 5.49376C43.9562 5.5526 43.7223 5.67552 43.5116 5.86253C43.3078 6.04591 43.1512 6.28063 43.0416 6.5667Z" fill="#0A0D12"/>
<path d="M51.4182 12.7938L50.9388 12.5112L52.148 10.4595C52.4029 10.0271 52.5251 9.67474 52.5145 9.40252C52.5067 9.1256 52.3665 8.9068 52.0939 8.74612C51.9059 8.63531 51.6925 8.57289 51.4538 8.55885C51.2178 8.54012 50.9823 8.5691 50.7471 8.6458C50.5193 8.72058 50.3153 8.84102 50.1351 9.00712L48.8095 11.2563L48.33 10.9737L50.4951 7.30031L50.9322 7.55796L50.4419 8.38993C50.6458 8.26949 50.8665 8.19056 51.1039 8.15314C51.3441 8.11102 51.5874 8.11192 51.8338 8.15584C52.0803 8.19976 52.3116 8.28544 52.5278 8.41287C52.7299 8.532 52.8793 8.67072 52.976 8.82904C53.0727 8.98735 53.1218 9.16195 53.1233 9.35283C53.1276 9.53901 53.0903 9.74189 53.0116 9.96147C52.9356 10.1764 52.827 10.4037 52.6857 10.6434L51.4182 12.7938Z" fill="#0A0D12"/>
<path d="M55.1341 12.9034C55.4174 12.6158 55.7342 12.4108 56.0843 12.2886C56.4422 12.1663 56.797 12.1366 57.1485 12.1995C57.5001 12.2624 57.81 12.426 58.0782 12.6902C58.3308 12.9391 58.4893 13.2291 58.5535 13.5605C58.6255 13.8917 58.624 14.2081 58.5491 14.5096L60.3754 12.6555L60.7719 13.046L57.0504 16.8242C56.9968 16.8787 56.9682 16.931 56.9647 16.9811C56.9651 17.0274 56.9867 17.0755 57.0295 17.1253L56.7194 17.4402C56.6301 17.3753 56.5661 17.3198 56.5271 17.2738C56.4493 17.1895 56.41 17.0856 56.409 16.9622C56.4081 16.8387 56.444 16.7401 56.5167 16.6662L56.8097 16.3689C56.4939 16.4484 56.1756 16.445 55.8547 16.3587C55.5338 16.2724 55.2626 16.1201 55.041 15.9019C54.8311 15.6951 54.6789 15.4609 54.5843 15.1993C54.4936 14.9415 54.4549 14.6736 54.4683 14.3958C54.4855 14.1217 54.5491 13.855 54.659 13.5957C54.7766 13.3363 54.935 13.1055 55.1341 12.9034ZM57.211 15.8681L58.1356 14.9294C58.2229 14.7397 58.2657 14.533 58.264 14.3092C58.2662 14.0816 58.2279 13.8639 58.1491 13.6561C58.0781 13.4483 57.9727 13.2755 57.8327 13.1377C57.6695 12.9768 57.4873 12.8663 57.2862 12.8061C57.089 12.742 56.8843 12.7204 56.6723 12.7413C56.4641 12.766 56.262 12.8274 56.066 12.9253C55.87 13.0232 55.6954 13.15 55.5422 13.3054C55.3814 13.4687 55.2555 13.651 55.1644 13.8523C55.0772 14.0574 55.0287 14.27 55.0188 14.49C55.0127 14.7061 55.047 14.9122 55.1218 15.1084C55.1966 15.3046 55.3137 15.4812 55.4731 15.6382C55.5741 15.7378 55.6982 15.8217 55.8454 15.89C55.9925 15.9584 56.1472 16.0074 56.3094 16.037C56.4794 16.0666 56.6434 16.0673 56.8014 16.0391C56.9593 16.0109 57.0959 15.9539 57.211 15.8681Z" fill="#0A0D12"/>
<path d="M60.8372 23.5529L66.2494 21.4381L66.9672 23.2752C67.1916 23.8495 67.2563 24.3748 67.1613 24.8513C67.0734 25.3308 66.8613 25.7476 66.5251 26.1015C66.1941 26.4535 65.7795 26.7268 65.2815 26.9214C64.7326 27.1359 64.2132 27.2158 63.7233 27.1612C63.2353 27.1117 62.8031 26.935 62.4266 26.6311C62.052 26.3322 61.7615 25.9185 61.555 25.39L60.8372 23.5529ZM65.073 26.3878C65.5049 26.219 65.8568 25.9878 66.1287 25.6941C66.4026 25.4055 66.5739 25.072 66.6428 24.6936C66.7168 24.3133 66.6674 23.902 66.4946 23.4599L65.9853 22.1564L61.5183 23.9018L62.0276 25.2053C62.2024 25.6525 62.4484 25.9899 62.7657 26.2173C63.0831 26.4448 63.4402 26.5718 63.8372 26.5983C64.2392 26.6228 64.6512 26.5526 65.073 26.3878Z" fill="#0A0D12"/>
<path d="M63.3371 32.7156C63.3026 32.412 63.3275 32.1237 63.4117 31.8505C63.5014 31.5767 63.6358 31.3336 63.8148 31.121C63.9992 30.9079 64.2181 30.732 64.4714 30.5933C64.7253 30.4601 65.0041 30.3763 65.3076 30.3418C65.7034 30.2968 66.0768 30.3449 66.4278 30.4862C66.7795 30.6329 67.071 30.8551 67.3026 31.1528C67.5395 31.4498 67.6811 31.8016 67.7273 32.2082C67.7748 32.6256 67.7158 33.0002 67.5504 33.3321C67.3855 33.6693 67.148 33.9462 66.8376 34.1627C66.5327 34.3785 66.1851 34.5087 65.7947 34.5531C65.7514 34.558 65.708 34.5629 65.6646 34.5679C65.6267 34.5722 65.5966 34.5729 65.5742 34.5699L65.1619 30.9431C64.8614 31.0048 64.5999 31.1196 64.3774 31.2877C64.1609 31.4606 63.9951 31.6689 63.8801 31.9126C63.771 32.1611 63.7319 32.4209 63.7628 32.6919C63.7942 32.9684 63.8943 33.2206 64.063 33.4486C64.2323 33.6819 64.4363 33.8344 64.6751 33.9061L64.5995 34.4007C64.3891 34.3367 64.1924 34.2246 64.0094 34.0642C63.8264 33.9038 63.675 33.7068 63.5551 33.4734C63.4412 33.2447 63.3686 32.9921 63.3371 32.7156ZM65.5585 30.8816L65.9145 34.0123C66.221 33.9555 66.4825 33.8406 66.699 33.6677C66.916 33.5003 67.0764 33.2926 67.18 33.0447C67.2896 32.8016 67.3287 32.5418 67.2973 32.2653C67.2659 31.9889 67.1694 31.7445 67.008 31.5322C66.852 31.3193 66.6464 31.1532 66.3912 31.034C66.1421 30.9195 65.8645 30.8687 65.5585 30.8816Z" fill="#0A0D12"/>
<path d="M63.4434 38.7519L67.881 37.5392L67.8126 38.1162L63.9594 39.1263L67.4685 41.0176L67.4039 41.5621L63.373 39.3452L63.4434 38.7519Z" fill="#0A0D12"/>
<path d="M61.8393 45.3264C61.9439 45.0393 62.0948 44.7923 62.2921 44.5854C62.4945 44.3804 62.7233 44.2228 62.9783 44.1124C63.2385 44.0039 63.5128 43.9442 63.8014 43.9331C64.088 43.9272 64.3749 43.9765 64.662 44.0811C65.0363 44.2174 65.3489 44.4271 65.6001 44.7102C65.8493 44.9984 66.0111 45.3273 66.0855 45.697C66.165 46.0686 66.1348 46.4466 65.9947 46.8311C65.851 47.2259 65.631 47.5348 65.3349 47.7579C65.0369 47.9862 64.7008 48.128 64.3264 48.1832C63.9572 48.2404 63.588 48.2017 63.2189 48.0673C63.1779 48.0524 63.1369 48.0374 63.0959 48.0225C63.06 48.0094 63.0327 47.9966 63.0141 47.984L64.2632 44.5543C63.9668 44.4753 63.6815 44.4614 63.4074 44.5126C63.1365 44.5707 62.8953 44.6832 62.6835 44.8499C62.4751 45.0237 62.3242 45.2388 62.2308 45.4951C62.1356 45.7565 62.1126 46.0269 62.1619 46.3061C62.2093 46.5905 62.3238 46.818 62.5056 46.9888L62.2173 47.3976C62.0575 47.2465 61.9315 47.0584 61.8393 46.8332C61.7471 46.608 61.6994 46.3642 61.6963 46.1017C61.6964 45.8463 61.7441 45.5878 61.8393 45.3264ZM64.6456 44.6761L63.5673 47.6368C63.867 47.7227 64.1523 47.7366 64.4232 47.6785C64.6922 47.6255 64.9283 47.5111 65.1316 47.3355C65.3382 47.1669 65.4891 46.9518 65.5844 46.6904C65.6796 46.4289 65.7023 46.1672 65.6526 45.9052C65.608 45.645 65.4981 45.4047 65.3229 45.1841C65.151 44.9705 64.9253 44.8012 64.6456 44.6761Z" fill="#0A0D12"/>
<path d="M64.9723 52.858L64.6836 53.3338L60.4018 50.7351C60.2199 50.6247 60.0811 50.5852 59.9855 50.6165C59.8899 50.6478 59.8138 50.7101 59.7572 50.8034C59.7063 50.8874 59.6646 50.977 59.6323 51.0723C59.6 51.1676 59.5748 51.2512 59.5567 51.3231L59.1209 51.1735C59.1374 51.0623 59.1736 50.9343 59.2295 50.7895C59.2826 50.6494 59.3375 50.5327 59.3941 50.4394C59.5243 50.2249 59.692 50.0905 59.8972 50.0364C60.0996 49.9869 60.3104 50.0286 60.5296 50.1617L64.9723 52.858Z" fill="#0A0D12"/>
<path d="M56.2467 54.5425C56.4531 54.3172 56.687 54.1467 56.9484 54.031C57.2102 53.9231 57.48 53.8668 57.7578 53.8624C58.036 53.8657 58.3067 53.9176 58.5698 54.0181C58.8369 54.1222 59.0791 54.2738 59.2964 54.4729C59.5217 54.6793 59.6958 54.9092 59.8189 55.1625C59.946 55.4196 60.0195 55.6867 60.0393 55.9639C60.0632 56.2447 60.0307 56.5184 59.942 56.7849C59.8535 57.059 59.7061 57.3088 59.4997 57.5341C59.2933 57.7593 59.0592 57.926 58.7975 58.034C58.5398 58.1456 58.27 58.2018 57.9881 58.2026C57.7103 58.207 57.4378 58.1571 57.1706 58.053C56.9075 57.9525 56.6633 57.799 56.438 57.5926C56.2208 57.3936 56.0486 57.1656 55.9215 56.9085C55.7985 56.6552 55.725 56.388 55.7011 56.1072C55.6776 55.834 55.71 55.5604 55.7985 55.2862C55.8872 55.0197 56.0366 54.7718 56.2467 54.5425ZM58.9089 54.8837C58.6755 54.6699 58.4162 54.5249 58.131 54.4485C57.8461 54.3799 57.5681 54.3805 57.2969 54.4502C57.0298 54.5237 56.8004 54.665 56.6088 54.8742C56.4171 55.0834 56.2984 55.3261 56.2525 55.6023C56.2067 55.8785 56.2324 56.1573 56.3296 56.4388C56.4309 56.724 56.5962 56.9717 56.8255 57.1818C57.0589 57.3956 57.32 57.5386 57.6089 57.6109C57.8978 57.6833 58.1779 57.6845 58.449 57.6148C58.7201 57.545 58.9515 57.4055 59.1432 57.1963C59.3349 56.9871 59.4516 56.7426 59.4934 56.4627C59.5316 56.1869 59.502 55.9082 59.4047 55.6267C59.3115 55.3488 59.1462 55.1012 58.9089 54.8837Z" fill="#0A0D12"/>
<path d="M50.9666 59.0327C51.2625 58.8372 51.5799 58.7387 51.9189 58.7371C52.2533 58.7385 52.564 58.8079 52.851 58.9453L51.4029 56.7533L51.8672 56.4466L55.1785 61.4587L54.7619 61.7339L54.3063 61.0442C54.3125 61.3605 54.2424 61.6651 54.0959 61.9581C53.9524 62.2556 53.7464 62.4931 53.4778 62.6705C53.232 62.8329 52.972 62.9294 52.698 62.9601C52.427 62.9952 52.1592 62.976 51.8947 62.9022C51.6302 62.8285 51.3833 62.7072 51.154 62.5382C50.9231 62.3769 50.7295 62.1778 50.5731 61.9411C50.3536 61.6088 50.2188 61.2564 50.1689 60.8839C50.1175 60.519 50.1568 60.1726 50.2868 59.8448C50.4168 59.517 50.6434 59.2463 50.9666 59.0327ZM51.367 59.3567C51.1713 59.4861 51.0216 59.6405 50.9179 59.8202C50.8173 60.0044 50.7574 60.2009 50.7384 60.4096C50.7148 60.6214 50.7291 60.831 50.7812 61.0385C50.8363 61.2506 50.924 61.4477 51.0443 61.6298C51.1706 61.821 51.325 61.9805 51.5076 62.1084C51.6856 62.2393 51.8797 62.3302 52.0898 62.381C52.3 62.4318 52.5103 62.4433 52.7207 62.4154C52.9312 62.3875 53.1297 62.3119 53.3164 62.1886C53.4347 62.1104 53.5426 62.0065 53.64 61.8767C53.7374 61.747 53.8167 61.5998 53.8779 61.4351C53.9376 61.278 53.9715 61.1215 53.9797 60.9656C53.988 60.8098 53.9621 60.6667 53.9021 60.5363L53.1803 59.4437C52.9962 59.3234 52.7975 59.2356 52.5844 59.1802C52.3743 59.1294 52.1625 59.1157 51.949 59.139C51.734 59.1699 51.54 59.2424 51.367 59.3567Z" fill="#0A0D12"/>
<path d="M45.0077 61.9768C45.2959 61.8753 45.5826 61.8352 45.8676 61.8562C46.1545 61.8825 46.4216 61.9591 46.6687 62.0861C46.9177 62.2182 47.1381 62.3923 47.3298 62.6082C47.5164 62.8259 47.6604 63.0789 47.7619 63.3671C47.8942 63.7428 47.9307 64.1175 47.8714 64.4912C47.8069 64.8667 47.6555 65.2006 47.4171 65.4928C47.1805 65.7901 46.8692 66.0067 46.4833 66.1427C46.087 66.2822 45.7087 66.3084 45.3483 66.2213C44.9827 66.136 44.6598 65.9662 44.3794 65.7121C44.1009 65.4631 43.8963 65.1534 43.7659 64.7828C43.7514 64.7417 43.7369 64.7005 43.7224 64.6593C43.7097 64.6233 43.7023 64.5941 43.7002 64.5717L47.1431 63.3594C47.0159 63.0802 46.8455 62.851 46.632 62.6717C46.4151 62.4993 46.175 62.3843 45.9118 62.3266C45.6452 62.2759 45.3832 62.2958 45.1259 62.3864C44.8634 62.4788 44.64 62.6327 44.4555 62.8481C44.2659 63.0652 44.1628 63.2982 44.1463 63.5469L43.6473 63.5838C43.6626 63.3644 43.728 63.1476 43.8435 62.9334C43.9589 62.7192 44.1171 62.5276 44.3179 62.3586C44.5153 62.1965 44.7453 62.0692 45.0077 61.9768ZM47.2917 63.7322L44.3197 64.7787C44.4436 65.0648 44.614 65.294 44.8308 65.4664C45.0426 65.6406 45.2808 65.7505 45.5456 65.796C45.8071 65.8486 46.069 65.8287 46.3315 65.7362C46.5939 65.6438 46.8106 65.4952 46.9814 65.2905C47.1541 65.0908 47.27 64.8533 47.3293 64.578C47.3851 64.3096 47.3726 64.0276 47.2917 63.7322Z" fill="#0A0D12"/>
<path d="M38.7516 67.2862C39.1181 67.2279 39.4296 67.0832 39.6858 66.8521C39.9366 66.6217 40.0969 66.3287 40.1665 65.9731L39.8271 63.3433L40.3791 63.272L40.9248 67.5009L40.4053 67.5679L40.2744 66.5533C40.1667 66.8698 40.0057 67.1354 39.7913 67.3501C39.5716 67.5655 39.3278 67.7015 39.06 67.758C39.0066 67.7704 38.961 67.7791 38.9231 67.784C38.8798 67.7896 38.8443 67.7914 38.8165 67.7895L38.7516 67.2862Z" fill="#0A0D12"/>
</svg>
